<?xml version="1.0" standalone="no"?>
<!DOCTYPE svg PUBLIC "-//W3C//DTD SVG 20010904//EN"
 "http://www.w3.org/TR/2001/REC-SVG-20010904/DTD/svg10.dtd">
<svg version="1.0" xmlns="http://www.w3.org/2000/svg"
 width="3917.000000pt" height="2759.000000pt" viewBox="0 0 3917.000000 2759.000000"
 preserveAspectRatio="xMidYMid meet">

<g transform="translate(0.000000,2759.000000) scale(0.100000,-0.100000)"
fill="#000000" stroke="none">
<path d="M22665 21890 c-22 -4 -652 -211 -1400 -458 -748 -248 -1758 -582
-2245 -742 -487 -161 -913 -305 -947 -321 -79 -38 -155 -120 -200 -217 -29
-63 -35 -90 -48 -220 -36 -362 -169 -2066 -168 -2142 1 -64 8 -104 28 -160 14
-41 190 -590 391 -1220 407 -1279 452 -1416 471 -1446 7 -12 11 -27 8 -35 -3
-8 -55 -47 -115 -87 -60 -40 -163 -111 -230 -158 -106 -74 -125 -84 -163 -84
-108 0 -217 -38 -281 -97 -26 -24 -32 -25 -99 -19 -191 18 -240 13 -423 -42
-225 -68 -600 -196 -679 -231 -89 -41 -200 -107 -275 -164 -97 -75 -173 -107
-290 -122 -116 -15 -176 -44 -218 -105 -18 -27 -32 -37 -42 -33 -8 3 -44 17
-80 30 -128 46 -233 23 -735 -163 -93 -34 -201 -70 -240 -79 -213 -48 -391
-141 -481 -250 -36 -44 -37 -45 -98 -45 -112 0 -222 -39 -295 -106 l-39 -35
-159 17 -158 17 -124 -31 c-147 -38 -399 -131 -684 -253 -188 -80 -219 -97
-318 -173 l-111 -84 -102 -4 c-123 -5 -188 -31 -270 -108 l-54 -51 -208 3
-209 3 -145 -44 c-140 -42 -519 -175 -687 -240 -62 -24 -111 -54 -195 -120
l-113 -88 -110 -17 c-171 -27 -241 -66 -316 -178 l-40 -59 -30 25 c-83 70
-258 85 -430 36 -167 -47 -716 -234 -818 -279 -93 -40 -276 -141 -338 -186
-18 -13 -66 -30 -105 -39 -129 -29 -228 -104 -270 -207 l-20 -48 -34 25 c-59
46 -146 67 -269 68 l-110 0 -390 -133 c-972 -330 -1226 -412 -1375 -447 -156
-36 -431 -119 -644 -195 -77 -27 -119 -48 -129 -63 -8 -12 -48 -65 -89 -117
-73 -93 -75 -98 -75 -150 1 -92 -27 -154 -102 -229 -37 -36 -97 -89 -134 -118
-112 -88 -169 -190 -170 -307 -1 -58 63 -281 259 -901 l44 -141 88 -64 c48
-36 101 -75 118 -87 26 -18 61 -24 237 -40 l206 -18 75 -72 c80 -76 137 -110
228 -137 109 -31 148 -25 456 69 179 55 301 98 332 117 118 73 809 389 850
389 44 0 116 56 277 215 l152 150 46 -29 c65 -42 183 -48 305 -16 47 13 130
25 185 28 99 5 107 7 614 184 500 175 515 181 600 240 47 34 129 103 181 154
l95 94 43 -21 c63 -31 195 -29 327 7 61 16 154 31 240 39 186 16 358 66 785
229 317 120 326 125 385 179 36 32 111 83 182 121 116 64 122 66 163 57 80
-18 196 17 289 86 l33 26 157 -7 156 -7 493 176 493 176 133 99 133 98 89 7
c69 6 114 17 202 51 l113 44 139 0 138 0 509 186 c515 189 573 215 661 296 72
66 132 88 238 88 79 0 109 6 215 39 101 33 145 41 239 47 110 6 129 11 420
106 168 54 396 128 508 164 l203 66 139 124 139 125 312 26 312 25 551 198
c303 109 564 203 580 209 16 6 31 9 34 6 6 -6 111 -308 362 -1045 76 -223 179
-524 229 -670 148 -430 201 -591 201 -611 0 -10 17 -61 37 -111 21 -51 36 -98
35 -104 -1 -6 21 -76 49 -155 28 -79 65 -185 83 -234 20 -57 45 -108 71 -140
71 -90 1377 -1558 1457 -1638 104 -104 174 -138 302 -144 l91 -5 805 262 c443
144 1017 330 1275 415 514 168 1050 342 1585 515 190 62 497 161 682 222 l337
110 90 123 c50 67 98 136 106 151 12 22 36 286 104 1163 l89 1133 -1420 4190
-1420 4191 -196 226 c-108 124 -339 387 -512 585 -173 197 -396 456 -496 575
-211 252 -244 284 -316 306 -61 19 -244 28 -303 15z m220 -163 c70 -37 174
-138 317 -307 29 -35 86 -100 126 -146 41 -46 68 -84 61 -84 -7 0 -2 -11 11
-25 12 -13 26 -22 30 -20 4 3 13 -2 20 -10 10 -12 10 -15 0 -15 -7 0 11 -26
39 -57 28 -32 119 -136 202 -231 l151 -173 -111 -52 c-61 -28 -110 -54 -110
-57 0 -3 55 -68 124 -145 68 -77 122 -141 120 -143 -14 -14 -163 114 -305 263
-58 61 -267 282 -464 492 -329 351 -360 382 -385 377 -14 -3 -54 -15 -89 -26
-35 -11 -66 -17 -69 -14 -3 3 -12 1 -20 -5 -7 -6 -13 -9 -13 -6 0 3 -105 -30
-232 -74 -815 -282 -1171 -402 -1458 -490 -395 -122 -533 -168 -1080 -361
-234 -82 -614 -210 -845 -284 -231 -73 -464 -151 -518 -171 l-99 -38 5 -65 c4
-59 -27 -384 -53 -555 -6 -38 -19 -170 -29 -292 -11 -121 -24 -230 -30 -241
-16 -30 -75 -36 -180 -17 -50 10 -101 15 -112 12 -19 -5 -20 -2 -15 81 2 48
16 186 30 307 37 309 66 703 55 733 -13 35 -11 83 6 116 8 15 15 40 15 54 0
33 45 124 75 152 19 18 27 20 43 11 17 -9 24 -7 39 15 19 25 106 63 149 64 11
0 133 39 270 86 137 47 798 269 1469 494 671 225 1351 453 1510 508 347 120
802 278 975 338 118 42 130 44 215 41 81 -3 97 -7 160 -40z m-705 -675 c0 -43
-54 -110 -106 -133 -39 -18 -63 -20 -187 -17 -131 2 -146 1 -195 -21 -34 -15
-67 -41 -93 -72 -26 -32 -62 -59 -104 -80 -56 -27 -74 -31 -144 -31 -52 1 -81
-3 -81 -10 0 -7 -17 -8 -50 -4 -66 9 -80 15 -80 35 0 12 114 54 513 188 281
94 515 172 520 172 4 1 7 -12 7 -27z m321 -21 c46 -15 108 -40 138 -56 66 -33
156 -116 182 -167 18 -35 42 -158 33 -167 -2 -2 -4 1 -4 6 0 6 -33 19 -73 28
l-72 18 -28 67 c-47 115 -142 181 -233 164 -36 -7 -102 -61 -137 -114 -17 -24
-18 -24 -59 -10 -47 16 -80 64 -71 101 9 32 190 158 229 159 5 0 48 -13 95
-29z m-494 -221 c78 -22 150 -41 161 -43 11 -2 41 -21 68 -42 l47 -39 -31 -8
c-32 -9 -32 -9 -17 -38 23 -44 18 -84 -19 -158 -19 -37 -37 -89 -41 -115 -6
-39 -14 -53 -46 -78 -24 -19 -55 -62 -86 -119 -26 -50 -52 -90 -58 -90 -5 1
-20 6 -32 13 l-21 12 34 85 c19 47 41 99 48 115 8 17 22 59 31 95 9 36 35 113
57 173 l41 107 36 -5 c25 -3 21 0 -14 9 -27 7 -66 20 -85 28 -24 10 -53 13
-90 9 l-55 -6 43 -29 c23 -16 42 -32 42 -36 0 -9 -31 -114 -35 -118 -2 -2 -49
11 -104 28 l-102 31 45 52 c25 28 44 52 42 54 -4 4 -127 -47 -139 -57 -8 -7
39 -100 57 -112 6 -4 22 -8 36 -9 18 -1 20 -3 7 -6 -10 -3 -61 10 -113 28
l-94 33 0 55 c0 67 29 132 73 163 35 25 120 57 153 58 11 0 84 -18 161 -40z
m320 -136 c-3 -3 -12 -4 -19 -1 -8 3 -5 6 6 6 11 1 17 -2 13 -5z m-1044 -16
c12 -6 42 -13 67 -15 25 -1 95 -15 155 -30 l110 -28 -53 -3 c-49 -3 -53 -5
-59 -33 l-5 -29 -158 0 -158 0 -22 -35 c-28 -45 -73 -69 -114 -61 -40 8 -111
55 -100 66 5 5 59 37 119 71 79 45 119 62 141 61 26 -2 33 2 38 23 7 29 9 29
39 13z m1094 6 c-3 -3 -12 -4 -19 -1 -8 3 -5 6 6 6 11 1 17 -2 13 -5z m118
-34 c13 -6 15 -9 5 -9 -8 0 -22 4 -30 9 -18 12 -2 12 25 0z m573 -50 c128 -50
157 -64 209 -106 43 -36 90 -101 79 -111 -4 -4 -23 10 -44 30 -45 44 -64 46
-89 11 l-19 -26 -81 31 c-142 55 -181 95 -168 172 4 21 8 39 9 39 1 0 48 -18
104 -40z m-580 -15 c61 -15 112 -28 112 -30 0 -10 -43 -141 -48 -147 -7 -7
-237 44 -248 54 -3 3 5 40 18 82 17 56 27 74 38 71 8 -2 66 -16 128 -30z m727
-3 c-3 -3 -11 0 -18 7 -9 10 -8 11 6 5 10 -3 15 -9 12 -12z m70 -40 c-3 -3
-11 0 -18 7 -9 10 -8 11 6 5 10 -3 15 -9 12 -12z m-598 -44 c-3 -8 -6 -5 -6 6
-1 11 2 17 5 13 3 -3 4 -12 1 -19z m-1292 -7 c3 -10 -4 -42 -15 -71 -38 -97
-28 -93 -125 -53 -69 29 -85 40 -85 57 0 18 14 27 93 53 110 37 124 39 132 14z
m565 -52 c0 -23 -5 -39 -14 -42 -18 -7 -86 11 -86 23 0 4 20 16 45 26 l46 17
-23 25 -23 25 27 -19 c21 -15 27 -27 28 -55z m-1077 -7 c51 -25 77 -47 120
-101 l56 -69 -75 24 c-98 31 -268 34 -382 5 -98 -24 -222 -45 -229 -37 -8 8
53 82 100 120 88 71 164 97 269 93 62 -3 89 -10 141 -35z m645 14 c43 -22 65
-52 59 -78 -4 -13 -29 -71 -56 -129 l-50 -106 -53 9 c-29 5 -55 11 -57 13 -4
5 120 305 126 305 2 0 16 -6 31 -14z m1266 -60 c-13 -36 -19 -44 -29 -36 -10
8 -23 7 -50 -5 -21 -8 -40 -15 -44 -15 -3 0 -4 22 -3 50 2 27 6 50 9 50 2 0
19 -11 37 -25 42 -32 47 -31 71 4 11 17 21 29 22 27 2 -1 -4 -24 -13 -50z
m-887 -50 c7 -6 -58 -166 -66 -166 -19 1 -209 66 -212 73 -1 5 10 43 26 86
l28 78 110 -33 c60 -18 111 -35 114 -38z m483 36 c3 -3 -6 -2 -19 1 l-23 6 23
-27 c13 -15 37 -42 54 -61 l30 -33 -30 6 c-16 3 -61 11 -100 17 -64 10 -95 27
-95 51 0 5 21 21 46 37 40 26 49 28 77 19 18 -6 34 -13 37 -16z m-2317 0 c16
-18 11 -22 -110 -89 -242 -134 -244 -135 -320 -134 -37 0 -96 3 -131 7 -43 4
-67 3 -77 -6 -12 -10 -15 -9 -15 7 0 15 6 19 23 17 12 -2 153 45 312 105 160
60 293 110 296 110 3 1 13 -7 22 -17z m2413 -26 c38 -14 64 -25 58 -25 -5 -1
-41 10 -80 23 -38 14 -64 25 -58 25 5 1 41 -10 80 -23z m-2262 -84 c6 -4 112
-48 236 -97 204 -82 225 -93 228 -116 2 -20 -5 -29 -36 -47 -44 -24 -63 -29
-44 -10 20 20 14 56 -12 74 -28 18 -257 106 -262 101 -2 -2 48 -46 111 -97 63
-52 115 -95 115 -97 0 -1 -44 18 -97 44 -168 79 -309 134 -360 139 -62 7 -127
-25 -164 -80 -34 -51 -52 -60 -92 -47 -30 11 -87 57 -87 71 0 4 51 39 114 78
63 40 120 80 127 89 12 13 28 15 113 9 54 -3 103 -10 110 -14z m2178 -64 c44
-20 64 -34 56 -39 -13 -7 -270 -79 -282 -79 -12 0 33 103 55 126 32 34 86 31
171 -8z m-1682 -27 c-11 -23 -23 -41 -26 -41 -2 0 -24 10 -47 22 l-42 21 65
22 c36 12 66 21 68 20 2 -2 -6 -21 -18 -44z m2495 39 c-3 -5 -12 -10 -18 -10
-7 0 -6 4 3 10 19 12 23 12 15 0z m-45 -20 c-8 -5 -22 -9 -30 -9 -10 0 -8 3 5
9 27 12 43 12 25 0z m-1972 -164 c-22 -44 -41 -82 -43 -84 -5 -5 -195 73 -195
81 0 4 18 43 40 87 l40 79 99 -41 100 -40 -41 -82z m1915 147 c-7 -2 -19 -2
-25 0 -7 3 -2 5 12 5 14 0 19 -2 13 -5z m-1264 -69 c88 -32 161 -60 161 -63 0
-3 -7 -14 -14 -24 -14 -18 -22 -18 -232 5 l-218 23 -7 33 c-6 29 -3 36 30 63
47 40 71 37 280 -37z m1154 59 c-7 -2 -21 -2 -30 0 -10 3 -4 5 12 5 17 0 24
-2 18 -5z m50 0 c-7 -2 -19 -2 -25 0 -7 3 -2 5 12 5 14 0 19 -2 13 -5z m-2229
-105 c-4 -41 -12 -67 -22 -73 -70 -45 -172 -178 -207 -270 -17 -43 -17 -47 -2
-63 15 -15 19 -14 44 8 l28 24 -25 -27 -25 -27 -53 17 c-40 13 -51 21 -47 33
4 8 66 111 138 227 110 177 136 213 155 213 22 0 23 -2 16 -62z m-1231 -12
c73 -25 158 -56 190 -69 l59 -24 -84 -16 c-73 -15 -88 -15 -123 -2 -91 32
-213 11 -342 -61 -62 -35 -63 -35 -63 -12 0 33 53 119 96 158 34 29 106 69
127 70 4 0 67 -20 140 -44z m557 29 c11 -13 4 -28 -40 -94 l-53 -78 -79 55
-80 56 109 37 c126 44 127 44 143 24z m3706 -10 c6 -25 8 -25 105 -25 54 0
151 -7 216 -15 236 -31 246 -40 316 -268 113 -363 254 -782 264 -780 16 3 103
-248 293 -845 94 -295 184 -562 200 -592 47 -93 784 -2333 783 -2380 -1 -8
194 -598 432 -1311 l433 -1296 -19 -108 c-12 -65 -16 -112 -11 -117 11 -11 15
3 33 112 6 41 17 81 23 87 9 10 37 -61 115 -292 88 -262 102 -310 96 -345 -6
-36 -23 -55 -166 -187 -133 -123 -159 -152 -157 -173 3 -21 -9 -33 -67 -73
-135 -94 -249 -140 -745 -301 -445 -145 -2359 -786 -3733 -1250 -335 -113
-615 -206 -623 -206 -8 0 -72 -22 -142 -49 -70 -26 -149 -51 -175 -55 -42 -7
-49 -5 -53 11 -5 17 -12 18 -62 12 -31 -4 -105 -8 -164 -8 l-108 -1 0 -25 c0
-14 -3 -25 -7 -25 -5 0 -51 5 -103 10 -52 5 -129 13 -170 16 -68 6 -79 10
-130 49 -31 24 -61 49 -67 57 -12 14 -153 445 -153 468 0 8 -22 73 -49 143
-50 134 -129 369 -382 1152 -84 259 -154 476 -157 483 -2 7 4 12 17 12 25 0
25 0 2 77 -10 34 -17 64 -15 66 7 6 -723 2178 -737 2192 -5 5 -9 -8 -9 -35 0
-26 -4 -40 -9 -34 -5 5 -53 141 -107 302 l-99 293 22 18 23 19 -25 73 c-14 40
-27 74 -29 77 -3 2 -3 -31 0 -75 l4 -78 -39 110 c-38 109 -38 110 -19 126 20
15 15 32 -270 890 -159 481 -334 1009 -388 1174 -53 165 -101 307 -106 315 -5
8 -14 35 -21 60 -11 39 -16 44 -42 45 -27 0 -31 5 -48 60 -10 33 -20 85 -20
115 -2 85 28 126 226 305 199 180 286 242 388 278 306 105 1318 447 2409 814
712 239 1579 531 1925 649 676 230 751 253 920 283 155 27 173 27 181 -4z
m-3528 -27 c21 -21 13 -39 -56 -127 -37 -47 -94 -129 -126 -181 -32 -52 -90
-143 -128 -202 -64 -99 -73 -108 -106 -113 -21 -4 -47 -8 -58 -10 -22 -5 -22
-5 -6 58 16 64 63 140 264 429 78 112 93 128 130 141 54 19 71 20 86 5z m1310
-53 c73 -23 82 -29 82 -50 0 -25 -22 -34 -178 -75 -24 -6 -49 -13 -57 -16 -7
-3 -18 4 -25 15 -9 17 -4 33 27 91 26 47 43 68 53 65 8 -2 52 -16 98 -30z
m-1083 -92 c13 -8 6 -22 -45 -96 l-61 -87 -80 40 c-44 23 -78 44 -76 48 2 4
25 44 51 89 l47 82 74 -34 c40 -18 81 -37 90 -42z m488 18 c50 -22 121 -51
157 -65 l65 -26 -105 6 -105 6 73 -52 c40 -29 71 -54 69 -57 -3 -2 -82 21
-176 52 -118 39 -171 61 -171 71 0 26 28 82 47 93 29 17 48 13 146 -28z
m-1970 -60 l68 -33 -68 -47 -68 -47 -174 -22 c-96 -12 -176 -20 -178 -18 -8 7
36 85 69 122 81 92 217 109 351 45z m3288 8 c38 -7 69 -15 69 -19 0 -10 -481
-174 -645 -220 -82 -23 -156 -43 -164 -46 -10 -3 -9 2 5 17 10 12 90 57 177
100 88 42 174 91 192 109 64 62 206 85 366 59z m-2692 -84 c1 -23 -23 -61
-101 -165 -136 -182 -327 -422 -346 -437 -9 -7 -36 -13 -60 -13 l-45 0 5 44
c4 35 19 62 69 128 115 151 144 187 154 187 6 1 44 49 85 108 129 185 144 201
187 205 42 3 51 -7 52 -57z m1729 15 c55 -12 60 -23 16 -34 -19 -5 -32 -2 -48
13 -11 11 -32 25 -46 31 l-25 10 25 -4 c14 -3 49 -10 78 -16z m-408 -91 c0
-11 -1 -19 -3 -19 -1 0 -56 -16 -121 -35 -157 -46 -161 -43 -91 63 l46 69 84
-30 c66 -23 85 -34 85 -48z m-1101 -25 c3 -3 -46 -68 -129 -175 -14 -18 -17
-17 -77 22 -35 23 -63 46 -63 50 0 5 30 47 67 94 l66 85 66 -36 c36 -21 68
-38 70 -40z m821 63 c0 -2 -12 -14 -27 -28 l-28 -24 24 28 c23 25 31 32 31 24z
m-250 -110 c107 -46 202 -87 210 -90 8 -3 -13 -6 -46 -6 -59 -1 -62 -2 -67
-28 -3 -19 1 -31 17 -44 l21 -18 -30 -1 c-26 0 -397 142 -419 161 -4 4 10 34
33 68 36 53 44 59 64 52 12 -5 110 -47 217 -94z m823 76 c-7 -2 -21 -2 -30 0
-10 3 -4 5 12 5 17 0 24 -2 18 -5z m-2196 -97 c3 -2 -485 -628 -503 -646 -9
-8 25 68 76 168 50 101 87 182 83 179 -5 -3 -65 -78 -133 -166 -69 -88 -126
-154 -128 -146 -3 14 178 260 376 508 l93 118 67 -7 c37 -3 68 -7 69 -8z
m2437 -17 c31 -7 53 -15 49 -20 -4 -4 -140 -56 -302 -114 -303 -110 -373 -124
-252 -50 34 20 102 66 151 101 50 36 105 72 123 79 39 17 154 19 231 4z m-607
-35 c-3 -3 -12 -4 -19 -1 -8 3 -5 6 6 6 11 1 17 -2 13 -5z m-727 -44 c54 -27
82 -61 65 -78 -3 -4 -59 -23 -123 -43 -113 -35 -117 -35 -125 -16 -5 15 6 37
49 93 31 41 61 74 66 74 5 0 35 -13 68 -30z m-587 -31 c12 -7 39 -25 60 -42
21 -16 74 -51 119 -78 77 -46 79 -48 51 -55 -32 -8 -43 -20 -43 -49 -1 -47
-15 -49 -76 -15 -33 18 -66 38 -74 45 -8 6 -50 26 -93 45 -43 18 -80 37 -83
41 -8 13 27 89 49 104 26 18 60 19 90 4z m1345 -131 c-2 -6 -78 -37 -169 -69
-90 -31 -242 -85 -337 -118 -160 -56 -171 -59 -160 -37 15 27 51 58 171 149
105 80 117 83 360 85 102 2 138 -1 135 -10z m-1399 -148 c1 -5 -198 -76 -246
-88 -28 -8 -10 35 50 113 l62 82 67 -51 c37 -28 67 -53 67 -56z m538 74 c-3
-3 -12 -4 -19 -1 -8 3 -5 6 6 6 11 1 17 -2 13 -5z m-1164 -48 c19 -7 93 -52
167 -100 73 -47 137 -86 142 -86 5 0 3 -7 -6 -15 -13 -13 -26 -10 -116 32 -98
45 -103 46 -116 28 -21 -29 -17 -64 9 -75 12 -6 53 -16 92 -24 58 -12 74 -20
97 -48 l27 -33 -38 -3 c-88 -7 -238 71 -359 184 l-62 59 36 48 c40 52 66 59
127 33z m777 -73 l31 -20 -116 -76 -117 -77 52 65 c29 36 50 68 48 71 -3 2
-43 -9 -89 -26 l-84 -31 44 38 c78 68 111 85 158 80 23 -3 56 -13 73 -24z
m313 -72 c16 -6 13 -12 -18 -49 -35 -41 -43 -44 -268 -116 -306 -98 -277 -91
-277 -67 0 14 15 30 43 47 23 15 66 49 95 75 63 58 157 105 232 118 54 9 158
5 193 -8z m-695 -58 c-10 -2 -26 -2 -35 0 -10 3 -2 5 17 5 19 0 27 -2 18 -5z
m-762 -132 c-6 -48 -5 -50 29 -77 39 -30 34 -44 -17 -44 -25 0 -28 4 -28 34 0
18 -7 39 -15 46 -8 7 -15 17 -15 22 0 12 39 68 47 68 3 0 3 -22 -1 -49z m376
22 c15 -15 28 -30 28 -35 0 -8 -209 -147 -252 -167 -21 -10 -21 -10 -3 1 26
17 196 180 192 185 -6 5 -109 -33 -164 -61 -29 -14 -56 -26 -60 -26 -4 1 15
12 42 26 28 15 66 44 86 65 46 49 88 53 131 12z m-1005 -4945 c-3 -8 -6 -5 -6
6 -1 11 2 17 5 13 3 -3 4 -12 1 -19z m49 -90 c38 -73 -4 -208 -101 -333 l-67
-85 -29 20 c-15 12 -31 25 -34 31 -4 5 18 51 47 102 l53 92 0 93 1 93 39 24
c38 22 41 23 59 7 10 -9 24 -29 32 -44z m-2338 -143 c47 -14 52 -19 52 -44 l0
-28 -112 -6 c-97 -4 -135 -12 -266 -52 l-154 -46 -33 23 c-39 26 -37 32 13 57
31 15 270 89 337 104 44 10 114 6 163 -8z m656 -132 c-10 -58 -39 -108 -81
-140 -32 -25 -178 -113 -188 -113 -3 0 -25 84 -25 94 0 3 18 6 40 6 64 0 100
21 180 108 41 44 76 81 78 81 2 1 0 -16 -4 -36z m2444 -56 c7 -8 11 -79 11
-190 0 -97 2 -201 6 -230 l6 -52 -442 -122 c-243 -68 -444 -121 -446 -119 -2
2 11 68 28 146 l31 144 -27 88 c-15 49 -26 90 -24 92 2 2 47 11 99 21 84 15
445 130 650 206 87 32 94 33 108 16z m-1134 -142 l65 -70 19 24 19 23 51 -94
c95 -177 112 -257 73 -343 -30 -68 -114 -135 -166 -135 -25 0 -18 -12 103
-176 60 -82 114 -164 121 -183 29 -88 0 -206 -59 -236 -36 -19 -198 -38 -238
-29 -52 12 -121 57 -147 94 -57 82 -71 207 -35 304 23 60 90 143 107 133 21
-13 36 -118 29 -202 -6 -71 -4 -85 16 -125 25 -49 81 -93 113 -88 13 2 31 24
51 62 l32 59 -74 124 c-41 69 -74 129 -74 134 0 5 11 9 25 9 31 0 31 1 1 53
-13 23 -29 59 -36 81 l-12 38 58 59 c57 58 58 60 62 124 6 89 -13 141 -113
315 -46 80 -87 154 -90 165 -3 11 3 4 14 -15 11 -19 49 -66 85 -105z m-2778
53 l-22 -73 -74 -12 c-41 -7 -106 -22 -145 -34 -85 -25 -275 -98 -292 -112 -9
-7 -13 -5 -13 6 0 27 97 123 158 155 54 29 288 112 371 132 20 4 37 8 37 9 1
1 -8 -32 -20 -71z m1138 -161 c51 -102 63 -183 42 -267 -26 -102 -92 -187
-197 -254 l-26 -16 -13 68 -12 68 31 34 c72 79 86 169 52 343 l-21 108 38 48
37 48 16 -53 c9 -29 33 -86 53 -127z m-200 61 c-4 -18 -8 -58 -8 -89 -1 -47
-8 -67 -50 -140 -82 -141 -75 -135 -99 -84 l-17 35 74 103 c41 56 73 103 71
105 -2 2 -28 -3 -58 -12 -47 -14 -62 -25 -103 -75 -27 -33 -50 -58 -52 -56
-11 10 24 78 59 119 36 40 159 126 182 126 5 0 5 -15 1 -32z m-943 2 c20 -11
25 -36 11 -58 -7 -10 -15 -8 -35 8 -22 18 -25 25 -17 41 12 22 15 23 41 9z
m-933 -255 c-40 -53 -74 -91 -76 -85 -6 16 26 94 50 126 19 23 68 52 91 54 4
0 -25 -43 -65 -95z m287 -22 c36 -18 54 -32 50 -41 -3 -8 -5 -36 -5 -62 0 -41
-5 -55 -30 -84 -17 -19 -48 -40 -68 -47 -56 -18 -56 -18 -19 -63 l35 -42 -39
-22 c-22 -13 -48 -21 -58 -17 -17 5 -17 9 -2 65 12 48 31 80 93 158 l77 97
-41 37 c-28 24 -54 38 -78 41 l-35 4 32 1 c18 1 57 -10 88 -25z m-581 -2 c7
-11 -44 -56 -93 -80 -20 -10 -259 -94 -531 -186 -272 -92 -507 -174 -523 -182
-15 -7 -37 -29 -50 -48 -24 -38 -34 -42 -62 -22 -17 13 -11 20 74 91 125 104
147 116 302 174 134 50 564 193 714 237 83 25 160 32 169 16z m368 -74 c-12
-13 -22 -36 -22 -53 0 -28 67 -329 96 -428 30 -103 12 -199 -50 -273 -26 -31
-169 -133 -186 -133 -16 0 23 137 67 235 24 55 47 108 50 118 3 11 -17 55 -53
114 -51 85 -59 94 -65 72 -6 -26 -24 -27 -50 -3 -8 8 -18 14 -21 14 -3 0 -46
-52 -94 -115 -79 -102 -89 -112 -92 -89 -5 39 23 105 61 144 37 38 100 69 139
70 57 0 58 2 57 132 -1 118 12 173 27 114 3 -14 9 -26 12 -26 12 0 72 45 72
55 0 9 60 75 69 75 2 0 -5 -10 -17 -23z m3163 -66 c79 -49 134 -97 157 -136 6
-10 -114 -175 -146 -200 -18 -14 -105 -121 -140 -172 -43 -64 -46 -66 -113
-52 l-58 12 -350 -116 c-192 -64 -379 -121 -413 -127 -88 -16 -110 -25 -149
-67 -33 -34 -35 -35 -53 -18 -27 25 -25 37 15 85 19 23 35 48 35 56 0 23 30
286 35 310 4 19 16 23 107 34 86 11 173 37 562 167 254 85 465 158 470 163 4
4 -11 36 -34 70 -24 35 -36 59 -29 55 8 -4 54 -33 104 -64z m-1488 -3 c-3 -7
-5 -2 -5 12 0 14 2 19 5 13 2 -7 2 -19 0 -25z m51 -248 c45 -51 58 -32 33 50
-11 35 -18 66 -16 68 7 8 98 -124 121 -176 13 -29 31 -94 40 -145 l16 -92 -43
-132 c-24 -73 -48 -133 -55 -133 -20 0 -92 58 -99 80 -11 34 3 85 30 110 54
50 15 188 -120 428 l-66 117 64 -70 c35 -38 77 -86 95 -105z m2139 38 c-3 -7
-5 -2 -5 12 0 14 2 19 5 13 2 -7 2 -19 0 -25z m-5578 -187 c42 -22 62 -43 85
-89 37 -73 14 -68 -94 20 -58 46 -112 88 -120 91 -8 4 9 5 39 2 30 -4 70 -14
90 -24z m-245 -18 c-9 -16 -52 -79 -93 -142 l-76 -114 -3 37 c-8 92 48 189
133 227 54 25 60 24 39 -8z m103 -69 c-3 -3 -12 -4 -19 -1 -8 3 -5 6 6 6 11 1
17 -2 13 -5z m103 -61 c0 -2 -18 10 -40 27 -22 17 -40 34 -40 37 0 2 18 -10
40 -27 22 -17 40 -34 40 -37z m-537 0 c8 -7 -43 -47 -93 -73 -19 -9 -178 -61
-352 -114 -334 -101 -446 -141 -697 -250 l-153 -67 -30 19 -30 19 44 35 c61
50 155 111 213 140 112 56 765 272 870 288 64 10 220 12 228 3z m684 -60 c-3
-10 -5 -4 -5 12 0 17 2 24 5 18 2 -7 2 -21 0 -30z m3040 15 c-3 -8 -6 -5 -6 6
-1 11 2 17 5 13 3 -3 4 -12 1 -19z m-3159 -15 c-68 -82 -159 -205 -155 -209
12 -12 88 9 125 34 22 15 63 56 93 91 56 69 72 67 45 -4 -21 -54 -96 -126
-171 -162 l-57 -28 -28 35 -28 34 20 41 c11 22 52 73 91 113 67 67 99 94 65
55z m3086 -28 c4 -14 22 -45 40 -69 65 -85 68 -182 10 -281 -13 -23 -24 -49
-24 -58 0 -21 -3 -21 -42 3 -70 42 -89 37 -763 -200 -413 -146 -624 -215 -629
-208 -2 1 15 75 36 163 l39 160 -15 70 c-9 39 -16 73 -16 77 0 3 24 9 53 13
172 21 390 81 1072 293 121 38 223 67 226 65 4 -1 10 -14 13 -28z m-3384 -55
c13 -7 24 -34 36 -87 9 -43 30 -105 47 -138 35 -70 61 -201 52 -268 -4 -34
-28 -87 -81 -182 -42 -74 -80 -135 -85 -135 -4 0 -26 17 -49 38 -55 53 -55 89
1 157 64 77 80 119 75 208 -2 44 -11 87 -20 104 -9 15 -33 78 -55 138 l-38
111 36 31 c39 35 52 38 81 23z m3777 -153 c111 -137 197 -260 219 -312 20 -49
18 -114 -6 -153 -44 -72 -235 -125 -334 -92 -89 29 -156 127 -156 229 0 49 34
237 46 249 1 2 23 -10 49 -28 59 -40 72 -67 57 -117 -18 -63 -24 -146 -13
-175 13 -34 65 -68 104 -68 62 0 101 88 77 174 -11 42 -32 72 -189 273 -46 59
-89 115 -95 123 -6 8 53 -45 131 -119 99 -92 147 -131 158 -127 13 5 1 24 -53
88 -66 78 -100 134 -123 196 -11 32 -27 50 128 -141z m-1952 21 c69 -72 108
-139 130 -223 24 -92 19 -145 -27 -297 l-41 -138 -31 19 c-42 26 -76 77 -76
115 0 19 14 54 34 85 l33 54 -14 56 c-8 31 -48 128 -88 216 -72 155 -73 160
-52 167 54 16 70 9 132 -54z m-158 -137 c12 -42 11 -48 -17 -104 -61 -122 -34
-210 120 -385 118 -136 206 -252 230 -305 27 -59 26 -139 -4 -202 -28 -60 -46
-77 -111 -106 -138 -61 -317 28 -362 180 -25 87 1 227 56 299 l17 24 45 -34
c48 -38 47 -29 39 -193 -4 -89 53 -162 119 -151 19 3 41 11 48 19 23 22 27 81
9 118 -9 19 -88 123 -175 232 -87 109 -169 221 -182 250 -20 43 -24 69 -24
147 0 89 2 100 35 165 29 58 41 72 70 82 57 20 73 13 87 -36z m-3518 -198
c-47 -60 -84 -103 -89 -103 -4 0 -14 15 -22 34 l-16 33 61 26 c76 31 83 32 66
10z m195 -82 c-12 -91 -16 -101 -45 -125 -16 -14 -45 -28 -65 -32 -20 -4 -41
-16 -50 -29 -13 -20 -13 -26 3 -54 10 -17 23 -31 28 -30 6 0 62 55 125 123 63
68 116 117 118 110 7 -30 -22 -99 -61 -141 -41 -44 -171 -128 -185 -119 -4 2
-22 25 -40 50 -32 44 -32 45 -12 56 11 6 51 51 88 101 l69 91 -46 44 -46 44
62 -26 c61 -26 61 -27 57 -63z m106 -4 c0 -5 -7 -4 -15 3 -8 7 -15 20 -15 29
1 13 3 13 15 -3 8 -11 15 -24 15 -29z m-841 9 c-6 -6 -395 -161 -493 -197 -44
-16 -154 -51 -245 -78 -194 -58 -317 -108 -402 -162 -65 -42 -77 -43 -123 -6
l-28 23 38 25 c115 76 206 113 567 234 458 153 498 164 606 164 46 1 82 -1 80
-3z m111 -58 c0 -14 -14 -8 -45 18 l-30 25 38 -17 c20 -10 37 -21 37 -26z
m3685 12 c4 -17 22 -49 41 -72 51 -60 68 -97 67 -148 -1 -47 -18 -95 -53 -145
-11 -16 -20 -44 -20 -61 0 -17 -3 -45 -6 -61 -6 -29 -9 -31 -69 -36 -36 -4
-130 -29 -221 -60 -370 -127 -964 -341 -1031 -372 l-71 -33 -36 37 c-38 39
-46 74 -22 100 16 17 98 294 98 326 0 11 -7 52 -14 91 l-14 71 76 0 c83 1 123
15 855 282 247 91 310 110 357 111 55 0 57 -1 63 -30z m-1568 -182 c22 -46 63
-123 91 -172 64 -110 80 -175 65 -260 -12 -66 -45 -161 -66 -190 -13 -18 -15
-18 -60 2 -26 12 -47 26 -47 32 0 5 7 54 16 108 25 157 14 201 -100 390 -86
142 -87 149 -39 157 21 4 45 8 53 10 43 9 48 4 87 -77z m-1743 -78 c55 -120
66 -176 60 -288 -9 -155 -25 -188 -127 -253 -82 -53 -87 -52 -87 24 0 54 7 75
53 172 l53 110 -41 135 c-23 74 -45 145 -49 158 -7 21 -5 22 47 22 l54 0 37
-80z m1562 -37 l37 -18 -39 -5 c-30 -4 -43 -12 -61 -40 -50 -79 -62 -81 -22
-2 24 45 44 82 46 82 1 0 19 -8 39 -17z m-1861 -421 c-3 -3 -13 2 -22 10 -14
15 -15 24 -2 95 l14 78 8 -89 c4 -49 5 -91 2 -94z m1864 78 c30 -61 26 -65
-25 -23 -17 14 -21 25 -17 51 3 17 7 32 9 32 2 0 17 -27 33 -60z m-4099 25 c0
-3 -9 -23 -20 -45 -14 -28 -29 -42 -52 -48 -156 -45 -714 -218 -793 -246 -55
-19 -149 -56 -210 -82 -201 -85 -320 -132 -350 -138 -23 -4 -37 0 -64 22 -67
57 -77 52 661 300 365 123 686 227 713 231 61 10 115 13 115 6z m3895 -70 c15
-38 39 -84 55 -102 49 -55 51 -117 5 -178 -12 -16 -25 -41 -28 -55 -6 -23 -60
-44 -724 -278 -395 -139 -721 -252 -726 -252 -4 0 9 31 28 70 28 56 37 89 46
168 11 99 11 100 -29 250 l-40 150 45 -34 c78 -60 116 -59 274 9 59 25 146 59
193 76 140 50 862 253 873 246 1 -1 14 -32 28 -70z m265 -55 c12 -16 19 -30
16 -30 -2 0 -14 14 -26 30 -12 17 -19 30 -16 30 2 0 14 -13 26 -30z m48 -178
l90 -83 17 23 16 23 40 -45 c92 -103 139 -193 139 -264 0 -71 -67 -153 -149
-182 -96 -35 -182 -3 -283 104 -54 57 -71 83 -84 129 -20 70 -8 141 36 201 34
47 56 47 96 -1 25 -30 26 -35 20 -109 -5 -59 -2 -94 11 -143 l17 -65 45 0 c64
0 127 33 134 70 8 40 -30 145 -66 182 -31 32 -267 318 -267 323 0 7 52 -38
188 -163z m32 64 c0 -5 -10 4 -22 20 -33 44 -36 53 -6 19 15 -16 28 -34 28
-39z m14269 -43 c-51 -60 -110 -127 -132 -150 -37 -38 -38 -42 -20 -51 15 -9
28 -5 64 18 44 29 45 29 98 15 109 -28 216 -116 274 -224 31 -57 62 -203 49
-228 -5 -10 -13 -56 -16 -103 l-7 -85 37 53 c35 50 39 52 73 46 62 -10 61 -8
41 -73 -10 -34 -17 -61 -15 -61 1 0 18 7 38 15 35 14 35 14 40 -14 9 -43 -10
-98 -41 -119 -29 -21 -366 -129 -442 -143 -25 -4 -154 -48 -288 -98 -150 -56
-258 -91 -281 -91 -21 0 -58 -7 -82 -16 -24 -8 -141 -49 -259 -89 l-215 -74
50 45 c76 70 170 134 225 155 60 23 139 24 206 4 l49 -15 95 57 c52 30 113 73
135 94 45 42 100 69 143 69 16 0 64 -9 107 -20 l77 -20 32 22 c58 41 156 121
152 125 -2 2 -32 -3 -66 -12 -34 -9 -69 -14 -76 -11 -7 3 -29 -1 -48 -9 -20
-8 -48 -15 -64 -15 -36 0 -81 42 -89 82 -3 16 -9 31 -13 33 -4 3 -50 -47 -101
-109 -70 -86 -104 -119 -134 -131 -38 -16 -324 -70 -331 -62 -2 2 -5 18 -6 37
-3 34 -2 35 62 58 36 13 90 28 120 33 30 5 65 12 76 14 12 3 64 51 114 107
107 119 150 167 276 304 50 54 103 113 118 131 18 21 32 29 45 26 17 -4 19
-12 14 -61 -6 -68 -26 -101 -134 -216 -44 -46 -79 -88 -79 -94 0 -5 42 -7 103
-5 118 6 156 20 201 76 l30 38 -20 121 -21 120 54 24 c29 13 53 27 53 32 0 7
-143 149 -186 185 -19 16 -28 16 -67 6 l-46 -11 55 -69 c30 -38 51 -69 47 -69
-4 0 -37 28 -73 61 -82 77 -95 84 -119 67 -41 -29 -119 -108 -155 -157 -34
-46 -41 -51 -74 -50 -94 3 -95 -2 48 181 85 109 174 208 257 287 69 67 128
121 130 121 3 0 -37 -48 -88 -107z m-16209 67 c6 -11 8 -20 6 -20 -3 0 -10 9
-16 20 -6 11 -8 20 -6 20 3 0 10 -9 16 -20z m16637 -23 c31 -28 39 -93 18
-156 -11 -33 -35 -70 -75 -113 -57 -60 -60 -62 -75 -44 -29 37 -18 98 37 225
29 66 57 117 63 114 5 -3 20 -15 32 -26z m-924 4 c4 -15 -13 -29 -84 -71 -48
-29 -120 -79 -161 -111 -83 -66 -136 -85 -206 -74 -26 4 -85 10 -132 14 l-84
6 42 34 c34 26 104 54 320 126 152 52 282 94 288 94 7 1 14 -8 17 -18z
m-17588 -17 c22 -5 43 -7 46 -7 12 4 80 -114 97 -166 20 -68 22 -215 3 -250
-7 -13 -47 -69 -87 -123 l-74 -99 0 81 c0 49 6 95 15 117 24 56 18 106 -30
278 -51 181 -52 188 -27 181 9 -3 35 -8 57 -12z m1905 -14 c6 -11 8 -20 6 -20
-3 0 -10 9 -16 20 -6 11 -8 20 -6 20 3 0 10 -9 16 -20z m103 -169 c38 -77 42
-91 42 -160 0 -65 -4 -83 -27 -123 -25 -42 -101 -118 -138 -138 -14 -7 -14 2
2 78 22 107 22 172 3 282 -19 109 -20 103 15 123 26 16 28 21 20 43 -29 75 28
3 83 -105z m17082 55 c29 -18 45 -34 45 -47 0 -55 -34 -463 -56 -677 -23 -229
-24 -293 -2 -334 6 -13 -3 -38 -36 -96 -25 -43 -56 -87 -68 -98 -29 -26 -87
-49 -163 -64 -62 -13 -71 -16 -455 -154 -129 -46 -386 -132 -570 -191 -514
-164 -784 -253 -1285 -427 -253 -88 -527 -177 -610 -198 -82 -21 -181 -52
-220 -70 -38 -17 -146 -55 -240 -84 -93 -30 -219 -72 -279 -95 -60 -22 -120
-41 -134 -41 -13 0 -166 -50 -339 -110 -174 -61 -329 -111 -347 -112 -77 -2
-236 41 -275 76 -13 11 -100 109 -194 216 -95 107 -236 265 -316 350 -128 137
-206 226 -436 496 -171 201 -189 224 -178 224 10 0 256 -230 262 -245 5 -13
124 -152 194 -227 49 -53 58 -58 96 -58 57 0 97 23 121 70 27 53 26 108 -2
146 -13 17 -62 65 -111 108 -105 93 -182 183 -254 293 -56 87 -61 99 -40 86
24 -14 637 -682 637 -694 0 -12 -28 3 -87 47 -17 13 -37 24 -43 24 -14 0 -186
-151 -183 -161 1 -4 37 -55 79 -113 77 -106 115 -146 140 -146 7 0 60 41 118
90 58 50 109 90 113 90 5 0 65 -68 133 -150 l125 -151 78 5 c65 5 142 26 445
125 202 66 389 125 417 131 27 6 53 17 57 23 4 7 8 8 8 3 0 -5 6 -4 13 2 36
30 1794 614 3137 1042 298 95 292 92 332 153 26 39 36 66 40 112 4 33 23 236
44 451 l38 391 46 11 c72 17 153 8 205 -22z m-2252 -112 c20 -3 37 -10 37 -15
0 -5 -4 -9 -9 -9 -5 0 -47 -16 -94 -36 -56 -23 -105 -53 -144 -86 -107 -94
-236 -134 -352 -109 -48 10 -58 8 -168 -30 -145 -51 -202 -79 -274 -136 -83
-64 -145 -86 -259 -88 -82 -2 -121 -10 -290 -60 -107 -31 -197 -62 -199 -69
-9 -28 -109 -112 -147 -124 -43 -12 -157 -14 -209 -3 -27 6 -30 10 -30 46 l0
39 890 298 c490 165 955 321 1035 348 80 27 152 48 160 45 8 -2 32 -7 53 -11z
m890 -28 c6 -14 -117 -181 -132 -181 -9 0 -140 98 -141 106 0 4 235 83 261 88
4 1 9 -5 12 -13z m-16244 -163 c13 -38 39 -90 57 -118 41 -61 51 -122 31 -185
-27 -79 -94 -224 -107 -228 -7 -3 -30 5 -51 17 -22 12 -51 23 -67 23 -15 0
-186 -57 -380 -126 -427 -153 -507 -177 -715 -217 -89 -17 -179 -37 -199 -45
-21 -7 -38 -12 -38 -10 0 2 11 23 24 47 16 29 32 90 46 175 l22 130 -26 73
c-14 40 -26 74 -26 75 0 2 35 9 78 15 158 25 311 65 541 141 413 136 592 202
685 251 50 26 94 47 97 48 3 1 16 -29 28 -66z m15745 25 c-4 -7 -13 -20 -21
-29 -11 -13 -10 -18 7 -34 19 -17 21 -17 67 21 27 21 43 32 37 24 -6 -8 -66
-88 -133 -177 -67 -89 -129 -163 -139 -166 -21 -4 -61 14 -85 40 -17 19 -13
24 125 176 79 86 144 156 146 156 2 1 0 -5 -4 -11z m788 -38 l45 -35 -74 -97
c-40 -54 -77 -98 -81 -98 -4 0 -30 19 -57 43 l-49 43 74 97 c47 61 78 94 85
89 7 -4 33 -23 57 -42z m-20137 -30 c15 -15 28 -44 34 -75 9 -48 8 -51 -28
-95 -21 -25 -46 -57 -55 -71 -21 -33 -50 -45 -145 -59 -83 -12 -115 -1 -127
45 -10 41 9 52 115 65 l99 12 9 49 10 48 -44 7 c-38 5 -49 2 -85 -22 -67 -47
-150 -134 -237 -249 -45 -60 -81 -111 -80 -114 0 -3 22 -23 49 -44 55 -41 69
-67 93 -172 28 -123 28 -143 4 -160 -29 -20 -64 -19 -76 3 -5 10 -9 43 -8 73
1 73 -20 108 -110 183 -78 65 -80 73 -18 113 28 19 33 28 39 79 15 127 135
283 291 378 59 36 61 37 152 34 83 -3 95 -5 118 -28z m3965 -129 c53 -66 242
-355 248 -379 20 -84 -35 -189 -122 -234 -53 -28 -146 -30 -198 -4 -58 28
-124 91 -149 142 -16 33 -22 65 -22 113 -1 75 29 211 47 211 19 0 67 -51 82
-86 9 -22 12 -52 8 -93 -6 -53 -4 -65 20 -104 44 -76 75 -107 106 -107 69 0
90 35 90 147 l0 78 -71 85 c-39 47 -84 99 -100 117 l-29 32 25 29 24 28 -40
73 c-66 122 -48 111 81 -48z m14960 116 c-124 -111 -181 -159 -185 -155 -2 2
0 21 6 41 19 71 88 126 159 127 29 0 32 -2 20 -13z m210 -2 c0 -3 -16 -36 -35
-74 -40 -81 -77 -115 -114 -106 -28 7 -132 77 -125 84 5 5 253 98 267 100 4 0
7 -1 7 -4z m-17353 -47 c-3 -7 -5 -2 -5 12 0 14 2 19 5 13 2 -7 2 -19 0 -25z
m18111 -140 c56 -33 102 -63 102 -67 0 -17 -103 -132 -115 -127 -8 3 -81 58
-164 123 l-151 118 85 3 c47 1 85 7 85 12 0 6 -3 10 -7 10 -5 0 -28 19 -53 41
l-45 40 80 -47 c44 -25 126 -73 183 -106z m-19678 77 c0 -109 -54 -183 -164
-225 -43 -16 -19 22 37 60 41 28 53 42 55 66 2 20 -3 38 -14 48 -27 27 -8 76
36 92 19 7 38 13 43 13 4 1 7 -24 7 -54z m1704 -84 c3 3 11 20 19 38 l14 33
42 -50 c97 -117 151 -243 151 -356 0 -50 -9 -83 -51 -189 l-52 -129 -56 56
-55 55 37 91 c20 50 37 106 37 125 0 66 -39 159 -102 241 -33 43 -76 111 -95
149 l-35 70 71 -69 c39 -39 73 -68 75 -65z m17533 18 c38 -23 69 -42 71 -44 2
-2 -126 -166 -144 -184 -2 -2 -37 16 -78 39 -65 38 -73 45 -63 60 41 56 133
169 139 170 4 0 38 -19 75 -41z m-1418 -29 c-8 -10 -42 -55 -76 -99 -90 -114
-70 -120 79 -22 l117 78 -48 -56 c-73 -86 -132 -166 -206 -281 -38 -58 -75
-111 -83 -117 -22 -18 -101 -17 -108 1 -7 18 66 212 110 290 44 79 106 149
170 192 59 39 63 41 45 14z m645 -37 c-10 -16 -42 -66 -71 -113 -98 -160 -98
-160 -142 -160 -36 0 -91 30 -91 49 0 10 126 177 162 216 26 28 27 28 53 11
25 -16 28 -16 58 3 44 28 53 26 31 -6z m-16825 -93 c1 -10 -2 -11 -7 -4 -4 6
-26 21 -49 33 -40 20 -42 23 -31 47 l12 25 37 -43 c21 -24 38 -50 38 -58z
m16541 66 c0 -13 -59 -123 -82 -153 -14 -17 -172 49 -176 74 -2 15 15 25 105
55 120 40 153 45 153 24z m565 -14 c-3 -3 -11 0 -18 7 -9 10 -8 11 6 5 10 -3
15 -9 12 -12z m-19898 -44 c-2 -13 -4 -5 -4 17 -1 22 1 32 4 23 2 -10 2 -28 0
-40z m20399 -142 c-69 -101 -127 -190 -128 -198 -8 -38 33 3 142 142 145 185
164 204 120 125 -113 -208 -243 -356 -414 -474 -81 -55 -125 -69 -190 -57 -41
8 -96 56 -96 84 0 16 9 21 53 26 28 4 90 17 137 28 76 19 90 26 130 67 25 25
100 123 167 218 107 150 188 241 201 228 2 -2 -52 -87 -122 -189z m-20509 137
c-3 -10 -5 -2 -5 17 0 19 2 27 5 18 2 -10 2 -26 0 -35z m20186 -28 c160 -79
198 -109 190 -147 -3 -18 -18 -33 -48 -49 l-44 -23 -43 23 c-56 31 -310 190
-322 201 -8 8 86 -20 222 -64 36 -12 27 15 -20 61 -24 22 -52 45 -63 51 -11 6
-16 12 -12 12 4 0 67 -29 140 -65z m-1450 -1 c26 -9 49 -20 52 -24 3 -4 -16 0
-43 10 -87 33 -194 35 -287 5 -18 -6 -18 -5 -2 5 50 32 192 34 280 4z m-17678
8 c-6 -4 -28 -23 -49 -42 -32 -29 -36 -30 -20 -8 10 14 30 33 44 42 26 16 41
21 25 8z m-1098 -134 c-30 -46 -119 -161 -199 -256 l-146 -174 2 -66 c2 -66 9
-90 48 -183 11 -25 18 -57 16 -70 -3 -16 -19 22 -47 111 -52 160 -61 258 -32
326 13 29 72 89 207 214 129 119 190 182 193 200 4 24 5 24 9 3 2 -15 -15 -51
-51 -105z m19926 42 c7 -7 -72 -139 -104 -174 -5 -6 -43 8 -93 35 l-84 44 60
86 60 87 76 -35 c43 -19 81 -39 85 -43z m937 30 l62 -50 -28 -11 c-187 -72
-203 -76 -208 -62 -3 8 -6 18 -6 23 0 8 108 150 114 150 2 0 32 -22 66 -50z
m-2391 36 c-2 -2 -15 -9 -29 -15 -24 -11 -24 -11 -6 3 16 13 49 24 35 12z
m-17838 -63 c13 -16 12 -17 -3 -4 -10 7 -18 15 -18 17 0 8 8 3 21 -13z m362
-17 c-10 -13 -20 -22 -22 -20 -4 4 29 44 36 44 2 0 -4 -11 -14 -24z m18173 -8
c-9 -12 -16 -28 -16 -34 0 -6 44 -29 98 -52 53 -22 114 -48 134 -56 l38 -16
14 35 15 34 148 -71 c81 -39 152 -74 156 -78 4 -4 3 -19 -4 -33 -11 -24 -18
-27 -62 -27 -40 0 -66 9 -131 44 -45 24 -157 72 -251 105 -210 76 -247 108
-167 150 47 25 46 25 28 -1z m-18471 -28 c21 -22 37 -40 34 -40 -3 0 -23 18
-44 40 -21 22 -37 40 -34 40 3 0 23 -18 44 -40z m17767 -77 c-169 -231 -195
-271 -234 -346 l-39 -79 -37 6 c-27 5 -33 4 -22 -3 8 -6 28 -11 44 -11 17 0
94 -30 173 -66 123 -58 143 -70 143 -90 0 -19 -7 -24 -44 -29 -24 -4 -69 -2
-100 5 -89 18 -249 66 -285 85 -31 15 -32 18 -18 33 13 13 21 13 42 4 16 -7
25 -8 25 -1 0 5 -8 13 -17 16 -10 4 -38 23 -64 42 -37 30 -67 41 -167 65
l-122 29 -25 -23 c-33 -31 -39 -23 -11 13 l23 28 134 -35 c74 -19 160 -37 191
-41 l57 -7 -21 41 -20 41 70 132 c96 184 133 240 88 136 -9 -21 -15 -38 -13
-38 32 0 122 50 209 116 61 46 112 84 114 84 3 0 -31 -48 -74 -107z m1574 -60
c-122 -240 -268 -417 -391 -477 -74 -37 -173 -42 -247 -13 -41 16 -48 23 -48
46 0 46 36 70 125 81 96 12 170 45 224 99 23 23 89 113 146 200 58 87 111 164
119 170 8 7 36 21 63 31 l48 18 8 -23 c7 -19 -3 -47 -47 -132z m-1302 39 c-19
-42 -37 -78 -39 -80 -2 -2 -47 10 -99 28 -61 20 -96 37 -96 46 0 8 0 17 -1 21
0 4 55 26 123 49 156 53 163 48 112 -64z m-16060 -38 c16 -49 43 -106 62 -131
44 -58 46 -108 5 -184 -16 -30 -32 -73 -36 -97 -8 -49 -20 -58 -115 -92 -36
-13 -67 -27 -70 -30 -3 -4 -34 -7 -70 -7 -55 0 -103 -12 -310 -82 -135 -45
-253 -90 -263 -99 -10 -9 -27 -33 -39 -53 l-20 -37 -97 40 c-93 38 -98 39
-181 32 -105 -8 -162 6 -206 50 -18 18 -38 52 -45 76 -7 25 -36 83 -65 130
-29 47 -50 88 -46 91 12 12 1230 370 1295 381 51 9 71 19 112 54 28 24 52 44
55 44 3 0 19 -39 34 -86z m183 54 c-3 -7 -5 -2 -5 12 0 14 2 19 5 13 2 -7 2
-19 0 -25z m17423 -88 c0 -24 -7 -28 -102 -57 -56 -17 -106 -29 -110 -27 -17
11 -7 49 29 108 20 33 40 66 45 73 7 9 26 1 74 -30 50 -33 64 -47 64 -67z
m-2162 64 c7 -2 12 -13 10 -25 -2 -15 -19 -28 -60 -44 l-57 -23 2 54 2 54 45
-6 c25 -3 51 -7 58 -10z m1107 -57 c17 -5 31 -11 33 -13 4 -3 -88 -164 -94
-164 -10 0 -170 63 -177 70 -5 5 10 44 34 88 l43 79 66 -24 c36 -14 79 -30 95
-36z m-16299 -39 c21 -35 69 -99 107 -143 38 -44 110 -134 159 -200 l90 -120
-4 -57 c-5 -70 -51 -144 -117 -188 -55 -37 -124 -40 -204 -10 -107 40 -175
127 -178 225 -1 41 44 272 56 283 7 8 65 -30 85 -55 23 -29 23 -59 4 -189 -5
-38 -3 -43 32 -72 76 -63 130 -76 164 -42 42 42 24 93 -85 230 -60 75 -187
265 -240 358 -6 11 2 12 39 7 42 -7 46 -6 46 14 0 11 2 21 4 21 3 0 22 -28 42
-62z m14640 -79 c-46 -63 -84 -115 -82 -116 1 -1 29 6 61 16 33 11 61 18 62
17 3 -2 -28 -130 -44 -181 -8 -27 -28 -70 -43 -95 -53 -83 -48 -116 20 -144
30 -12 41 -12 77 0 l43 15 75 -51 c68 -46 88 -71 68 -83 -5 -3 -73 8 -153 23
-85 17 -149 25 -154 20 -6 -6 -14 -4 -20 5 -6 7 -45 25 -86 40 -230 79 -393
134 -399 133 -18 -2 -21 4 -7 18 9 9 28 31 42 49 l25 33 147 -68 c81 -38 160
-72 175 -75 l28 -7 -3 83 c-5 158 39 301 120 391 36 40 121 102 130 94 2 -3
-35 -55 -82 -117z m1023 37 c110 -57 151 -71 326 -116 110 -28 208 -53 217
-56 14 -4 15 -10 6 -37 -25 -73 -41 -73 -238 -7 -82 28 -154 50 -161 50 -7 0
1 -15 19 -33 37 -38 40 -62 11 -93 -12 -12 -30 -61 -44 -118 -57 -228 -176
-349 -358 -363 -69 -5 -188 9 -215 26 -23 14 81 71 159 86 42 8 87 19 100 25
26 12 75 92 164 265 31 60 76 133 100 161 l45 52 -38 24 c-21 14 -101 41 -184
63 -129 34 -145 41 -135 55 49 66 63 80 80 80 11 0 76 -29 146 -64z m-624 44
c-16 -4 -42 -5 -57 -2 -16 2 -35 -1 -44 -8 -8 -8 -30 -15 -47 -17 l-32 -3 40
19 c27 13 61 19 105 19 48 0 57 -2 35 -8z m1428 -57 c-7 -2 -19 -2 -25 0 -7 3
-2 5 12 5 14 0 19 -2 13 -5z m-43 -7 c0 -2 -9 -6 -20 -9 -11 -3 -18 -1 -14 4
5 9 34 13 34 5z m-3403 -38 c-3 -7 -5 -2 -5 12 0 14 2 19 5 13 2 -7 2 -19 0
-25z m-15012 12 l41 0 112 -277 113 -278 107 -83 c81 -63 111 -82 127 -77 53
17 113 25 140 19 53 -12 202 -103 233 -142 68 -87 71 -138 11 -252 -45 -87
-92 -141 -147 -169 -69 -35 -715 -223 -762 -222 -104 2 -117 7 -208 80 -49 39
-106 91 -127 117 -30 36 -42 44 -59 39 -64 -19 -330 -1 -432 30 -102 30 -161
110 -219 300 -15 50 -34 108 -41 129 -15 42 -11 57 8 38 7 -7 26 -12 43 -12
23 0 34 -7 47 -30 21 -37 37 -38 78 -4 l31 27 -6 -119 c-6 -112 -5 -122 17
-164 32 -62 92 -92 185 -92 42 -1 85 6 113 17 25 9 64 24 87 32 23 8 65 35 93
59 54 46 83 54 116 29 10 -8 29 -15 41 -15 30 0 43 -26 32 -64 -12 -43 -11
-159 2 -193 17 -47 60 -83 118 -100 84 -24 140 -14 267 50 133 66 275 113 369
122 125 11 253 87 271 161 9 36 -1 136 -17 170 -10 18 -33 35 -72 52 l-59 25
-121 -29 c-108 -26 -128 -34 -174 -71 l-53 -43 -95 0 c-69 0 -95 3 -95 13 0 6
5 66 10 131 l9 119 -80 96 c-67 80 -79 100 -74 121 4 14 9 59 12 101 6 98 -18
160 -88 223 -47 42 -49 46 -49 96 l0 53 53 -7 c28 -3 70 -6 92 -6z m18650 -33
c86 -46 82 -63 -25 -99 -95 -32 -120 -35 -120 -13 0 23 63 145 75 145 5 0 37
-15 70 -33z m-19630 -17 c-37 -38 -39 -89 -6 -124 31 -33 113 -75 266 -136 86
-34 138 -50 155 -46 l26 5 -33 -97 -34 -97 96 100 c53 55 90 89 84 75 -27 -56
-115 -179 -167 -232 -56 -58 -74 -66 -101 -49 -12 8 -9 23 23 90 21 44 36 85
34 91 -2 6 -69 41 -148 77 -98 44 -171 85 -225 126 -115 87 -120 95 -16 28 13
-8 22 -11 20 -6 -40 85 -49 112 -49 143 0 47 9 61 46 72 53 15 59 11 29 -20z
m17388 0 c22 0 27 -4 27 -24 0 -62 -38 -102 -84 -90 -19 4 -29 18 -41 55 -20
60 -14 73 34 65 20 -3 48 -6 64 -6z m1141 -26 c54 -16 100 -33 102 -39 3 -6
-11 -45 -31 -87 l-35 -76 -106 34 c-58 18 -108 35 -111 38 -4 4 6 36 46 140 6
15 17 26 24 23 6 -2 56 -17 111 -33z m901 -29 c-63 -142 -111 -207 -254 -348
-77 -76 -135 -140 -128 -142 7 -2 24 -5 40 -7 18 -2 -52 -32 -225 -96 -139
-51 -257 -92 -261 -92 -23 0 26 48 135 131 67 52 127 97 132 101 7 4 -8 27
-38 57 -28 28 -48 52 -45 55 2 2 18 6 34 9 81 13 156 31 160 38 3 4 -24 17
-60 29 l-64 21 20 52 c12 29 25 62 29 74 l9 21 82 -32 c46 -17 84 -37 86 -42
2 -6 -15 -34 -38 -63 -23 -28 -39 -54 -36 -57 3 -3 20 -1 38 4 32 8 78 55 158
161 16 21 29 30 40 26 62 -24 66 -22 137 74 37 49 69 89 71 87 2 -2 -8 -29
-22 -61z m-18678 7 c85 -44 153 -156 153 -254 0 -46 -19 -126 -31 -134 -5 -3
-27 5 -49 17 -29 16 -39 28 -34 39 11 27 17 88 10 114 -10 39 -65 87 -142 122
-48 23 -74 41 -82 59 -15 33 -15 52 1 59 26 12 134 -2 174 -22z m450 -29 c-9
-9 -20 -13 -24 -9 -4 4 -1 11 7 16 25 16 35 11 17 -7z m14864 -10 c13 -16 12
-17 -3 -4 -17 13 -22 21 -14 21 2 0 10 -8 17 -17z m1187 -20 c-10 -2 -26 -2
-35 0 -10 3 -2 5 17 5 19 0 27 -2 18 -5z m-1157 -20 c13 -16 12 -17 -3 -4 -17
13 -22 21 -14 21 2 0 10 -8 17 -17z m1086 11 c-3 -3 -12 -4 -19 -1 -8 3 -5 6
6 6 11 1 17 -2 13 -5z m597 -53 c19 -21 19 -21 -2 -21 -14 0 -27 11 -37 31
-15 29 -15 30 2 21 10 -6 27 -20 37 -31z m-1646 -16 c-3 -3 -9 2 -12 12 -6 14
-5 15 5 6 7 -7 10 -15 7 -18z m30 -40 c-3 -3 -9 2 -12 12 -6 14 -5 15 5 6 7
-7 10 -15 7 -18z m-16132 -149 c-14 -19 -27 -50 -28 -68 l-1 -33 -4 32 c-3 24
3 42 23 68 14 19 29 35 31 35 3 0 -6 -15 -21 -34z m-207 -204 l-1 -27 -12 30
c-7 17 -16 44 -20 60 l-7 30 21 -33 c11 -18 20 -45 19 -60z m227 18 c7 0 20 9
28 21 17 24 11 26 96 -24 91 -53 91 -53 126 -64 17 -6 75 -36 129 -68 l97 -57
-20 -21 c-25 -24 -88 -26 -142 -4 -19 8 -68 22 -108 32 l-73 17 -99 111 c-55
61 -100 115 -100 121 0 6 12 -6 27 -27 14 -20 32 -37 39 -37z m19108 16 c-6
-16 -24 -23 -24 -8 0 10 22 33 27 28 2 -2 1 -11 -3 -20z m-18193 -13 c96 -52
121 -148 64 -250 -15 -29 -32 -53 -36 -53 -14 0 -58 105 -80 192 -19 78 -20
138 -3 138 4 0 28 -12 55 -27z m16590 -30 c9 -10 27 -39 42 -64 31 -54 96
-116 132 -125 46 -11 120 1 154 27 18 13 49 49 70 80 34 53 38 56 56 43 29
-22 54 -17 87 17 l31 30 -7 -43 c-13 -83 -64 -145 -183 -226 -74 -49 -98 -54
-203 -35 l-85 16 -107 136 c-59 75 -108 140 -110 145 -4 13 74 34 92 25 8 -4
22 -15 31 -26z m-16811 -54 c0 -18 -189 -257 -265 -335 -40 -41 -62 -55 -110
-69 -103 -29 -193 -3 -228 67 -20 41 -14 90 25 187 l22 54 18 -42 c10 -24 21
-62 24 -85 4 -22 13 -53 21 -68 11 -24 20 -28 54 -28 38 0 47 6 127 88 48 48
132 137 187 196 l99 109 13 -29 c7 -16 12 -36 13 -45z m938 -193 c69 -75 67
-142 -9 -210 -55 -50 -90 -65 -175 -76 -70 -9 -164 1 -164 18 0 3 15 24 34 47
30 36 46 45 113 65 140 41 136 35 64 80 -35 21 -68 43 -73 48 -9 9 120 69 153
71 9 1 35 -19 57 -43z m-751 -29 c46 -9 91 -30 177 -82 64 -38 116 -75 116
-81 0 -6 -7 -17 -15 -24 -12 -10 -49 3 -202 70 -104 46 -189 83 -189 84 -1 0
2 11 7 24 9 25 19 26 106 9z m-43 -144 c13 -27 32 -75 42 -108 10 -33 21 -63
24 -68 4 -4 33 4 66 19 151 68 141 65 164 46 21 -17 21 -18 -57 -94 -68 -66
-85 -77 -124 -83 -106 -16 -220 84 -205 179 6 37 54 156 62 156 2 0 14 -21 28
-47z"/>
<path d="M21893 20713 c9 -2 23 -2 30 0 6 3 -1 5 -18 5 -16 0 -22 -2 -12 -5z"/>
<path d="M24018 19633 c-10 -3 -15 -10 -11 -20 5 -13 3 -13 -15 -4 -17 9 -34
6 -89 -15 -37 -14 -106 -34 -153 -44 -47 -10 -101 -24 -120 -30 -90 -32 -109
-38 -165 -55 -92 -27 -112 -35 -131 -56 -9 -10 -29 -19 -43 -19 -14 0 -39 -7
-56 -16 -16 -9 -48 -18 -70 -19 -39 -2 -134 -32 -171 -54 -35 -20 -488 -188
-528 -195 -21 -4 -190 -56 -375 -116 -185 -59 -358 -111 -385 -115 -27 -4 -63
-13 -80 -20 -17 -7 -58 -21 -91 -30 -33 -10 -75 -24 -93 -31 -18 -8 -39 -14
-47 -14 -8 0 -29 -6 -47 -14 -18 -8 -69 -26 -113 -40 -115 -36 -142 -46 -215
-76 -117 -50 -924 -328 -970 -335 -43 -6 -80 -17 -160 -45 -19 -6 -48 -16 -65
-20 -16 -5 -61 -20 -100 -35 -38 -14 -83 -30 -100 -35 -16 -4 -46 -14 -65 -21
-19 -6 -51 -17 -70 -24 -19 -7 -62 -20 -95 -30 -33 -9 -82 -28 -110 -40 -27
-13 -230 -85 -450 -160 -220 -75 -411 -141 -425 -148 -38 -19 -36 -65 5 -186
41 -124 47 -200 15 -208 -22 -6 -27 -23 -7 -23 8 0 159 -439 416 -1212 222
-667 524 -1573 671 -2013 320 -954 650 -1959 680 -2070 12 -44 70 -215 130
-380 105 -294 183 -524 294 -875 31 -96 62 -184 70 -195 7 -11 21 -58 31 -105
12 -53 35 -117 62 -169 47 -93 55 -152 28 -205 -15 -28 -14 -29 28 -67 23 -21
52 -38 64 -39 12 0 23 -5 25 -11 3 -8 181 47 503 154 668 222 843 277 876 277
16 0 43 6 61 14 18 7 60 21 93 30 33 10 74 22 90 28 17 5 49 14 71 18 23 5 68
18 100 30 33 12 73 25 89 29 17 5 50 18 75 29 129 58 1055 370 2080 701 256
82 718 235 1028 340 309 105 568 191 576 191 8 0 18 22 25 61 12 59 11 63 -34
207 -26 81 -55 156 -65 167 -9 11 -30 72 -45 135 -35 144 -144 487 -185 579
-16 38 -30 76 -30 84 0 24 -58 204 -73 229 -8 13 -101 286 -205 608 -310 952
-364 1122 -367 1164 -1 21 -9 44 -18 51 -8 6 -36 78 -62 160 -27 82 -59 174
-73 204 -42 95 -228 661 -218 664 5 2 6 9 2 16 -7 11 -10 11 -18 0 -7 -11 -8
-9 -7 6 1 11 -1 27 -4 35 -8 20 -219 672 -301 930 -35 113 -73 246 -82 295
-10 53 -36 131 -62 190 -24 55 -75 188 -112 295 -37 107 -80 223 -94 257 -15
34 -31 88 -37 120 -6 32 -19 73 -29 93 -39 77 -90 243 -85 274 7 39 -46 200
-73 224 -26 23 -60 130 -54 170 3 24 -2 41 -23 68 -18 24 -53 115 -101 262
-41 125 -74 232 -74 239 0 13 -10 15 -42 6z m-49 -215 c7 -29 46 -152 87 -273
40 -121 82 -265 93 -320 11 -55 58 -213 105 -351 47 -138 86 -254 86 -258 0
-4 -21 11 -47 32 -65 54 -106 73 -163 76 -35 2 -59 11 -89 33 l-42 31 81 157
c44 86 80 160 80 164 0 9 -273 181 -286 181 -6 0 -18 6 -28 13 -18 13 -17 15
2 53 11 22 37 60 57 84 20 24 45 61 56 81 19 38 25 114 11 135 -4 7 -56 41
-116 78 -67 40 -104 67 -95 71 31 11 184 64 190 64 3 1 11 -23 18 -51z m-350
-115 c-11 -38 -31 -112 -46 -165 l-26 -97 -76 59 c-44 34 -102 67 -139 80
l-62 23 57 34 c32 19 69 42 83 51 30 20 188 81 212 81 15 1 15 -4 -3 -66z
m207 1 c21 -15 54 -42 73 -60 l34 -33 -12 -56 c-16 -71 -52 -114 -104 -122
-21 -3 -48 -1 -60 5 -12 7 -44 20 -72 30 -45 16 -50 21 -53 51 -7 68 86 211
137 211 10 0 36 -12 57 -26z m-706 -141 c0 -15 -135 -303 -142 -303 -4 0 -55
41 -113 90 -84 71 -110 88 -121 79 -7 -6 -19 -9 -26 -7 -27 9 49 43 210 94
174 54 192 59 192 47z m182 -40 c135 -117 128 -114 193 -103 54 9 61 8 83 -12
37 -36 26 -68 -31 -96 -26 -13 -50 -29 -53 -37 -3 -8 9 -46 27 -85 23 -51 36
-69 48 -66 9 3 77 21 151 42 167 47 216 49 293 11 97 -48 103 -79 39 -208 -22
-46 -36 -61 -74 -80 l-47 -24 20 -44 c22 -50 19 -71 -10 -71 -33 0 -86 55
-117 122 -24 52 -29 76 -29 140 l0 77 -40 -5 c-41 -6 -154 -42 -168 -54 -4 -4
2 -46 13 -95 21 -90 19 -104 -16 -105 -12 0 -93 129 -99 158 -2 9 -15 61 -29
116 -14 54 -26 106 -26 116 0 20 -16 25 -118 36 l-64 6 34 37 c18 20 43 47 55
61 l22 25 -40 48 c-22 26 -49 47 -59 47 -22 0 -70 -54 -70 -78 0 -9 9 -45 19
-79 19 -61 19 -62 -3 -92 -23 -34 -27 -35 -75 -21 -32 9 -36 7 -107 -57 -84
-75 -84 -75 4 -133 54 -36 118 -40 172 -11 34 18 35 18 71 -4 42 -27 90 -35
104 -18 7 8 15 9 25 3 12 -7 7 -12 -22 -25 -21 -8 -46 -15 -57 -15 -44 0 -25
-22 89 -101 66 -45 120 -85 120 -89 0 -4 -27 -13 -60 -20 -53 -11 -65 -11
-105 4 -52 20 -80 52 -97 110 -19 68 -24 71 -116 56 -72 -12 -85 -12 -126 4
-62 24 -104 68 -112 117 -6 36 -10 40 -48 49 -107 27 -101 23 -104 62 -5 63
-41 60 -83 -9 l-22 -35 23 -104 c23 -102 23 -105 5 -146 -46 -105 -131 -144
-221 -102 -68 32 -102 120 -71 181 18 34 109 120 145 136 23 11 27 31 22 147
-2 68 22 108 99 162 53 37 54 37 83 20 59 -35 100 -88 118 -154 15 -55 20 -63
43 -66 21 -3 32 5 54 37 28 39 29 40 79 34 l50 -5 13 113 c12 114 12 114 53
156 37 38 54 47 95 52 6 0 31 -16 55 -36z m-781 -266 c-56 -167 -62 -179 -135
-277 -31 -41 -56 -84 -56 -95 0 -74 52 -151 130 -190 40 -20 52 -22 91 -14 57
12 117 47 143 82 15 21 21 44 22 86 0 44 7 69 27 103 42 72 55 71 155 -10 53
-42 165 -91 210 -92 47 0 102 -31 174 -99 35 -32 80 -70 101 -84 37 -25 39
-25 90 -11 l52 15 60 -59 c82 -80 139 -111 231 -127 42 -7 81 -18 86 -23 18
-18 -3 -72 -52 -131 -26 -31 -55 -71 -64 -89 -25 -49 -20 -114 13 -180 l29
-58 80 -19 c102 -23 141 -16 191 34 27 27 44 57 61 112 12 41 59 143 102 226
70 134 82 152 97 143 13 -7 127 -336 405 -1173 212 -640 386 -1171 386 -1179
0 -7 4 -18 9 -23 5 -6 59 -163 120 -350 278 -844 535 -1595 542 -1583 6 10 9
9 13 -2 3 -8 59 -177 125 -375 238 -720 384 -1176 378 -1181 -3 -4 -29 14 -57
39 -59 53 -103 66 -169 48 -43 -11 -45 -11 -67 16 -39 47 -32 87 24 143 41 41
53 63 76 134 26 84 27 85 9 122 -20 43 -26 47 -178 110 -60 25 -117 52 -125
60 -13 13 -6 32 64 168 61 119 77 158 71 177 -9 29 -90 115 -127 135 -31 16
-81 18 -108 4 -15 -8 -28 -2 -68 33 -28 23 -101 70 -164 103 -111 61 -114 62
-147 48 -56 -23 -102 -64 -122 -108 -25 -54 -25 -146 -1 -174 21 -25 171 -132
184 -132 6 0 34 -7 63 -15 l53 -16 -53 -102 c-110 -209 -275 -567 -275 -595 0
-15 -13 -46 -29 -68 -29 -39 -140 -243 -175 -321 -10 -23 -24 -44 -31 -46 -18
-7 -59 16 -160 88 -79 57 -95 65 -129 63 -38 -3 -43 -8 -114 -105 l-74 -103 6
-52 c7 -51 10 -55 69 -98 53 -38 72 -45 128 -51 85 -10 137 -36 186 -95 60
-74 179 -117 225 -81 17 13 98 149 150 252 17 33 35 63 41 67 6 4 81 -29 165
-72 149 -76 156 -78 191 -67 34 11 38 18 91 147 69 166 75 177 100 185 22 7
26 5 171 -92 76 -52 100 -63 133 -63 35 0 38 -2 26 -14 -15 -14 -413 -154
-530 -187 -65 -18 -109 -33 -380 -129 -80 -29 -174 -60 -210 -70 -36 -10 -330
-108 -655 -218 -1199 -407 -2098 -707 -2373 -792 l-282 -87 44 47 c59 63 94
135 105 214 5 36 12 70 16 76 12 19 61 10 111 -21 76 -49 220 -119 244 -119
12 0 30 5 41 10 27 15 87 138 109 227 11 45 28 85 42 100 28 30 70 53 96 53
24 0 32 54 25 178 -6 95 -16 113 -81 154 -143 88 -312 -22 -312 -204 0 -37
-23 -98 -37 -98 -12 0 -98 53 -138 85 -55 44 -71 51 -136 59 -76 10 -142 42
-224 113 -64 54 -76 61 -138 71 -90 14 -161 48 -227 109 -37 34 -71 55 -100
63 -82 21 -162 53 -167 67 -10 26 9 65 51 106 75 73 100 155 76 242 -29 105
-178 165 -286 116 -56 -26 -83 -68 -96 -148 -6 -38 -19 -86 -30 -108 -29 -57
-160 -227 -168 -218 -4 4 -35 91 -69 193 -35 102 -114 334 -176 515 -63 182
-142 422 -176 535 -36 117 -72 216 -85 232 -13 16 -139 382 -327 955 -169 510
-381 1151 -472 1423 -91 272 -165 498 -165 501 0 4 19 9 42 12 44 6 41 3 161
136 37 41 38 41 62 24 13 -10 25 -28 25 -40 0 -20 3 -21 26 -13 14 6 53 10 87
10 89 1 142 27 166 82 11 24 22 62 26 85 6 41 4 47 -59 137 l-65 94 48 63 c78
103 201 239 215 239 7 0 25 -9 39 -20 l25 -20 52 70 c29 39 54 69 56 67 2 -2
-24 -62 -57 -133 -75 -157 -102 -255 -162 -579 -47 -254 -68 -469 -57 -577 3
-29 2 -100 -1 -158 -5 -92 0 -153 47 -495 51 -377 55 -399 127 -670 71 -262
84 -299 205 -585 71 -168 173 -388 227 -490 97 -182 104 -191 447 -630 266
-338 370 -464 437 -525 125 -114 501 -405 523 -405 43 0 637 313 673 354 6 7
51 36 100 65 50 29 122 75 160 102 39 28 134 88 212 135 78 47 156 102 174
121 43 50 70 116 62 156 -7 41 -297 620 -333 667 -28 36 -110 210 -110 233 0
7 -4 17 -9 22 -5 6 -29 68 -55 138 -25 71 -80 192 -121 269 -41 77 -75 143
-75 146 0 4 120 72 265 150 234 127 272 145 323 149 31 2 73 1 93 -4 l36 -8
-145 -474 c-138 -454 -144 -475 -126 -488 34 -24 66 -26 153 -9 47 9 156 23
241 31 277 25 542 47 545 43 2 -2 -429 -918 -705 -1496 l-39 -83 32 -19 32
-20 40 39 c28 27 165 103 450 251 226 117 429 223 453 237 l42 24 -19 -48
c-11 -26 -118 -288 -239 -580 -121 -293 -217 -533 -213 -533 7 0 342 461 578
795 531 751 679 966 705 1022 17 35 28 67 26 72 -1 5 -230 -96 -508 -225 -277
-129 -510 -232 -518 -229 -10 4 -3 25 31 87 78 144 636 1212 642 1230 11 29
-101 31 -550 8 -235 -11 -428 -20 -430 -18 -2 2 55 147 127 323 l130 320 100
48 c56 26 103 45 105 43 3 -3 0 -42 -6 -87 -21 -154 -13 -219 32 -268 22 -23
110 -72 157 -86 14 -4 81 -35 150 -67 72 -35 152 -66 190 -73 36 -7 151 -37
255 -67 220 -64 218 -64 297 29 38 45 45 61 56 125 44 273 41 660 -7 1028 -36
273 -40 292 -88 425 -132 367 -253 633 -361 797 -59 88 -310 404 -391 492 -31
34 -157 130 -197 151 -37 19 -97 19 -132 1 -43 -23 -97 -86 -130 -151 -17 -33
-122 -200 -235 -372 l-204 -312 8 -52 c5 -29 6 -55 4 -59 -2 -4 47 -53 110
-109 63 -56 115 -106 115 -110 0 -6 -205 -103 -254 -120 -6 -2 1 10 17 26 l27
30 -27 12 c-44 20 -613 364 -613 370 0 3 182 129 405 280 223 151 402 278 398
282 -5 3 -102 54 -216 113 -114 58 -254 132 -310 165 -141 81 -176 97 -222
104 -38 6 -569 247 -589 267 -5 5 -8 12 -5 14 3 3 160 39 349 81 375 82 750
174 750 184 0 3 -69 32 -152 65 -84 32 -157 64 -163 70 -5 6 -19 10 -30 8 -11
-1 -146 40 -300 91 -381 129 -1229 406 -1395 457 -74 22 -143 45 -153 51 -15
8 -20 3 -36 -33 -21 -50 -9 -69 25 -37 l22 21 41 -24 c22 -12 41 -30 41 -37 0
-12 3 -12 12 -3 7 7 17 12 23 12 6 0 53 -35 104 -78 66 -56 99 -78 114 -75 33
5 712 -388 712 -412 0 -17 -56 -28 -550 -106 -302 -49 -551 -88 -552 -89 -1 0
4 -14 10 -30 14 -38 -20 -20 1087 -585 234 -119 428 -220 432 -224 4 -3 -118
-87 -270 -186 -152 -99 -335 -217 -406 -264 l-130 -84 25 -19 c101 -78 205
-158 491 -375 l327 -247 -117 -39 c-64 -21 -135 -40 -157 -42 -210 -16 -311
-29 -322 -42 -9 -12 -26 -13 -76 -8 -35 4 -70 11 -77 15 -11 7 -46 141 -110
422 -12 54 -26 95 -31 92 -5 -3 -9 -3 -9 0 0 27 -85 488 -100 542 -21 74 -25
101 -38 254 -9 98 -27 149 -79 218 -46 62 -65 66 -278 58 -104 -4 -229 -12
-276 -17 -56 -7 -93 -8 -104 -2 -11 7 -34 4 -72 -9 -37 -12 -86 -18 -142 -18
-47 0 -142 -7 -211 -14 -69 -8 -161 -14 -205 -14 -44 1 -90 -2 -102 -6 -21 -7
-22 -6 -10 16 7 13 20 35 30 50 17 24 17 29 3 57 -9 16 -16 54 -16 84 0 76 34
138 148 265 96 108 304 381 466 612 90 128 148 239 196 368 l27 74 354 119
c195 65 363 123 374 129 53 26 628 223 685 235 36 7 66 14 67 14 1 1 -20 -63
-46 -142z m1632 -608 c102 -51 127 -74 127 -117 0 -77 -62 -165 -172 -247
l-38 -27 23 -32 c15 -21 22 -45 22 -75 0 -39 -5 -47 -53 -92 -29 -27 -62 -49
-72 -49 -11 0 -44 9 -75 21 -62 23 -75 47 -57 105 7 23 7 33 -1 31 -6 -1 -15
11 -21 26 -13 35 -4 51 54 95 35 27 48 31 75 26 29 -5 35 -2 50 23 10 16 36
38 59 49 30 14 51 35 78 79 20 33 37 65 37 71 1 16 -171 26 -210 12 -18 -6
-72 -9 -128 -6 -78 4 -106 9 -139 28 -38 22 -79 66 -70 76 5 4 329 31 401 33
35 1 64 -7 110 -30z m-1858 -236 c132 -47 354 -123 493 -170 234 -79 252 -86
252 -108 0 -14 -7 -26 -17 -29 -10 -2 -227 -51 -483 -107 -415 -91 -479 -108
-480 -130 0 -15 262 -150 490 -252 321 -144 642 -295 654 -307 7 -7 -9 -10
-43 -10 -51 0 -55 -2 -94 -46 -43 -49 -39 -48 -132 -29 -18 4 -37 1 -48 -7
-15 -11 -16 -17 -5 -46 20 -53 -3 -83 -77 -102 -58 -14 -106 -42 -455 -258
-165 -101 -170 -104 -170 -95 0 4 12 15 28 24 200 118 515 309 522 318 3 3 31
28 63 55 l59 49 -54 35 c-29 19 -78 46 -108 60 -30 14 -172 92 -314 174 -143
81 -269 148 -281 148 -12 0 -38 12 -57 28 -19 15 -152 85 -295 156 l-261 129
10 28 c5 15 19 29 31 32 12 3 193 38 402 77 209 39 410 77 446 85 37 8 75 15
85 15 11 0 25 4 33 9 15 10 -204 158 -390 265 -99 57 -105 63 -96 84 12 27
-18 34 292 -75z m-2295 -62 c120 -82 137 -90 203 -101 40 -7 80 -16 89 -22 25
-12 78 -107 78 -138 0 -64 -74 -127 -136 -117 -63 10 -142 67 -176 125 -16 29
-34 52 -38 50 -4 -2 -46 -21 -93 -43 -81 -38 -86 -42 -87 -71 0 -17 -23 -80
-50 -139 l-51 -107 -24 16 c-13 9 -32 13 -42 10 -10 -3 -8 1 5 9 40 23 94 99
88 122 -3 11 -6 32 -6 47 0 41 -27 50 -87 31 -66 -21 -83 -14 -83 34 0 38 0
38 78 70 42 17 127 41 187 53 130 25 145 29 145 38 0 12 -112 142 -121 142 -5
0 -35 -41 -67 -91 l-59 -90 -27 36 -28 36 26 37 c58 84 117 152 131 152 8 0
74 -40 145 -89z m-582 -164 c50 -38 92 -73 92 -77 0 -4 -9 -15 -20 -25 -20
-18 -21 -18 -63 22 -49 47 -83 67 -102 59 -23 -9 -67 -104 -59 -129 18 -59 56
-68 115 -26 38 26 63 24 78 -7 23 -52 -42 -94 -227 -144 -127 -34 -154 -36
-172 -15 -17 21 -23 19 -43 -15 -15 -25 -21 -28 -37 -20 -31 16 -68 12 -125
-16 l-54 -27 -65 53 c-36 28 -66 56 -66 61 0 5 21 51 47 102 l46 94 40 -9 c21
-5 51 -15 66 -23 37 -19 98 -87 119 -133 9 -20 17 -39 19 -41 1 -2 22 13 46
33 31 25 58 38 91 42 49 7 53 14 36 59 -11 30 2 62 76 176 24 38 44 74 44 80
0 13 6 9 118 -74z m95 -187 c-3 -11 -9 -20 -14 -20 -14 0 -11 28 4 33 6 3 13
6 14 6 0 1 -1 -8 -4 -19z m-217 -344 c23 -17 30 -11 -84 -81 -51 -31 -92 -60
-90 -64 2 -4 26 -51 53 -105 46 -90 50 -104 50 -167 0 -37 -5 -73 -10 -78 -8
-8 -35 7 -90 49 -43 33 -83 59 -89 56 -59 -25 -84 -28 -117 -12 -19 9 -47 34
-62 57 l-29 40 41 65 c23 36 41 67 41 70 0 3 19 30 43 60 29 38 52 57 77 64
19 5 73 21 120 34 101 29 120 30 146 12z m319 -117 c9 -26 -12 -59 -82 -133
l-63 -65 0 -99 c0 -86 -3 -102 -23 -129 -17 -24 -83 -81 -135 -118 -1 -1 14
-45 34 -97 l36 -96 76 -8 77 -9 -2 -51 c-2 -55 -38 -164 -55 -164 -5 0 -47 33
-93 73 l-82 72 -38 130 c-20 72 -38 131 -40 133 -3 3 -129 -98 -133 -107 -1
-4 6 -28 17 -53 l19 -45 -41 9 c-63 14 -81 36 -72 89 6 35 20 56 71 109 53 55
70 67 116 78 107 25 181 106 216 238 19 69 20 81 8 106 -14 28 -14 29 28 53
24 14 48 25 54 25 13 0 62 62 62 78 0 17 39 1 45 -19z m1949 -191 c32 -33 32
-35 60 -248 15 -118 38 -269 52 -334 60 -289 235 -1038 249 -1065 20 -39 21
-154 1 -170 -12 -10 -26 -5 -70 25 -31 20 -56 38 -56 39 0 2 -14 63 -30 135
-17 73 -28 135 -26 138 3 2 -4 27 -16 56 -29 71 -36 105 -53 233 -8 62 -21
125 -28 140 -8 16 -18 62 -22 103 -3 41 -11 83 -17 94 -6 11 -11 40 -12 65 -1
44 -2 46 -31 46 -17 0 -45 12 -66 28 -20 15 -38 27 -41 27 -3 0 -3 -41 0 -91
4 -83 3 -96 -19 -135 -13 -25 -31 -44 -40 -44 -15 0 -18 17 -24 113 -4 62 -6
131 -4 153 3 33 -4 57 -36 117 -22 42 -42 77 -45 77 -3 0 -24 -25 -48 -55 -30
-38 -41 -61 -38 -77 3 -13 7 -53 11 -90 l5 -66 -42 -15 -43 -14 4 -68 c2 -47
11 -82 27 -113 35 -66 33 -148 -5 -227 -48 -100 -49 -101 -97 -66 -22 17 -53
54 -70 83 -29 53 -29 53 -27 205 2 84 7 172 13 195 5 24 10 95 10 159 0 92 -3
119 -15 129 -8 7 -15 26 -15 42 0 16 -6 43 -14 61 -13 33 -77 96 -99 98 -76 9
-74 10 -140 -63 -62 -68 -65 -74 -87 -168 -20 -85 -21 -102 -10 -129 7 -18 15
-30 17 -28 2 3 -2 16 -8 31 -10 21 -9 29 3 43 9 10 31 52 50 93 42 92 87 135
132 126 17 -4 56 -26 86 -49 l55 -43 3 -82 c1 -45 0 -82 -3 -82 -3 0 -39 23
-80 50 -42 28 -81 53 -89 56 -7 3 -27 -7 -45 -21 -39 -33 -41 -75 -7 -120 23
-30 24 -34 15 -117 l-10 -87 51 -100 c27 -55 50 -102 50 -105 0 -8 -93 -26
-100 -19 -4 4 -22 49 -40 100 -22 62 -40 97 -55 107 -23 15 -24 14 -30 -22 -4
-27 1 -55 21 -107 37 -100 31 -167 -28 -283 -32 -64 -49 -88 -65 -90 -23 -3
-21 -9 -84 212 l-23 78 33 172 c41 219 49 352 27 466 -14 75 -20 89 -51 118
-69 63 -143 34 -207 -83 -65 -120 -129 -276 -135 -329 -3 -28 -9 -58 -14 -67
-12 -23 13 -54 36 -46 16 7 16 9 0 33 -24 37 -16 105 21 180 20 40 57 87 118
147 48 48 91 87 95 87 8 0 117 -189 126 -218 5 -16 1 -30 -11 -43 -16 -18 -16
-22 -2 -51 14 -31 13 -38 -35 -182 l-50 -150 -29 34 c-32 39 -35 70 -13 150
49 180 49 178 20 247 -15 35 -33 63 -41 63 -7 0 -34 -19 -59 -43 -42 -41 -45
-47 -45 -97 0 -49 3 -56 39 -90 l38 -37 -26 -73 c-22 -60 -33 -76 -57 -87 -41
-17 -62 -16 -91 7 -33 26 -38 21 -19 -21 8 -19 25 -90 36 -159 12 -69 24 -133
27 -142 3 -14 -2 -18 -21 -18 -22 0 -27 -7 -41 -52 -9 -29 -22 -103 -28 -165
-12 -107 -26 -148 -46 -127 -5 5 -11 18 -13 28 -1 11 -9 21 -17 24 -20 7 -6
-330 16 -372 8 -15 17 -52 20 -82 5 -49 3 -57 -31 -103 -20 -28 -36 -62 -36
-76 0 -14 -4 -25 -10 -25 -12 0 -4 -55 -54 365 l-44 360 9 230 c15 431 15 428
64 645 82 368 126 539 147 565 42 54 75 62 409 95 570 56 923 88 988 89 59 1
65 -1 95 -31z m2587 12 c26 -7 67 -42 150 -128 204 -208 342 -390 430 -564 67
-133 281 -650 272 -658 -4 -4 -17 -10 -28 -13 -36 -11 -70 31 -100 123 -16 47
-53 137 -82 200 -69 144 -113 254 -117 290 -2 16 -40 81 -86 145 -140 197
-155 213 -205 226 -46 12 -85 47 -85 78 0 9 -23 62 -50 118 -55 112 -66 121
-138 110 -24 -4 -46 -17 -62 -36 -27 -32 -280 -440 -314 -507 -15 -28 -38 -51
-78 -75 -31 -19 -55 -35 -53 -37 2 -2 45 -8 97 -13 51 -5 105 -12 120 -15 25
-6 29 -1 67 74 22 44 45 83 50 86 5 4 28 4 50 0 l40 -6 -26 -42 c-14 -22 -39
-57 -54 -77 -16 -20 -29 -41 -29 -46 0 -6 27 -18 60 -28 33 -10 58 -20 55 -23
-2 -3 25 -36 60 -75 49 -52 65 -77 65 -99 0 -33 6 -35 -110 36 -60 38 -83 46
-121 46 -40 0 -55 6 -98 40 -28 22 -55 40 -60 40 -31 0 -11 -36 93 -175 137
-182 209 -321 180 -342 -10 -7 -22 -13 -26 -13 -5 0 -48 60 -96 133 -47 72
-94 139 -103 147 -43 38 -259 324 -259 342 0 34 480 734 508 741 29 8 46 7 83
-3z m-643 -182 c-2 -17 -64 -62 -247 -181 -134 -87 -245 -156 -246 -155 -2 2
58 55 133 118 74 63 160 143 190 178 l56 62 58 0 c56 0 59 -1 56 -22z m608
-58 l27 -11 -50 -52 c-43 -43 -53 -60 -58 -100 -10 -63 -40 -107 -94 -134 -25
-13 -47 -21 -49 -18 -6 6 183 325 192 325 3 0 17 -5 32 -10z m139 -110 c24
-17 48 -30 53 -30 13 0 78 -72 96 -107 19 -38 30 -97 22 -127 l-6 -25 -60 22
c-48 18 -63 20 -79 10 -16 -10 -21 -7 -35 25 -16 34 -16 40 -1 75 19 45 13 73
-18 81 -48 13 -55 8 -67 -46 -6 -29 -16 -75 -22 -103 l-11 -49 -28 31 c-53 60
-55 140 -6 228 41 72 75 75 162 15z m191 -411 c96 -61 185 -112 198 -113 46
-5 82 -48 135 -161 64 -139 130 -324 140 -395 5 -30 16 -72 24 -93 9 -21 19
-62 23 -90 3 -29 13 -76 21 -106 12 -44 13 -58 2 -77 l-12 -24 -44 36 -45 37
-53 -53 -53 -52 -11 51 c-6 28 -14 82 -17 120 l-7 68 32 12 c17 8 31 17 31 21
0 4 -64 83 -142 176 -188 223 -173 203 -160 216 18 18 70 -29 238 -222 87 -99
159 -178 162 -176 2 3 -25 80 -61 173 -35 92 -68 188 -71 213 -16 103 -47 172
-118 270 l-18 24 -24 -23 -24 -22 -143 94 c-79 52 -165 106 -190 120 -36 21
-48 33 -51 57 -4 28 -3 30 30 30 27 0 73 -24 208 -111z m-2306 82 c-28 -54 5
-96 155 -196 119 -79 618 -469 605 -473 -33 -12 -111 41 -467 319 -213 166
-390 303 -391 305 -3 2 99 64 106 64 1 0 -2 -9 -8 -19z m615 -37 c-15 -19 -25
-36 -24 -38 2 -1 119 -72 260 -157 142 -85 253 -156 247 -158 -30 -11 -102 25
-320 162 -133 84 -245 156 -246 161 -3 8 88 63 107 66 2 0 -9 -16 -24 -36z
m1709 -227 l16 -73 -39 -119 -39 -120 -3 75 c-3 71 -3 163 0 257 1 40 5 45 42
52 4 0 14 -32 23 -72z m-458 -76 c66 -53 107 -79 117 -75 23 8 69 -25 64 -47
-5 -19 11 -48 51 -91 13 -14 21 -31 18 -37 -4 -5 12 -40 35 -77 39 -64 40 -69
23 -81 -10 -7 -21 -13 -25 -13 -4 0 -5 -17 -2 -37 6 -46 62 -223 71 -223 3 0
31 22 62 49 l57 50 7 -61 c10 -97 7 -158 -6 -162 -7 -3 -28 -7 -46 -10 -27 -5
-34 -2 -41 17 -5 12 -15 38 -24 57 l-15 35 -25 -54 c-18 -39 -23 -59 -16 -70
5 -9 28 -45 50 -81 l41 -65 -12 -139 c-7 -77 -19 -154 -26 -172 -17 -41 -8
-65 53 -144 23 -30 41 -56 39 -58 -2 -2 -23 2 -45 8 -29 8 -48 20 -61 42 -35
58 -59 176 -65 318 -3 74 -7 173 -9 220 -6 147 -38 278 -111 465 -24 61 -53
137 -66 170 -12 33 -36 76 -54 95 -18 19 -49 62 -68 95 -82 145 -100 179 -86
169 8 -6 59 -48 115 -93z m-228 -143 c-27 -50 -49 -63 -313 -186 -185 -86
-342 -144 -525 -192 -118 -31 -388 -107 -409 -115 -11 -4 -10 -8 5 -19 18 -14
18 -15 1 -34 -23 -26 -129 -73 -178 -79 -21 -3 -63 -2 -93 1 l-56 7 0 53 0 53
-47 -7 c-26 -4 -77 -4 -113 1 -36 5 -73 8 -82 9 -11 0 -18 8 -18 19 0 24 77
40 425 87 287 38 415 64 642 130 241 70 535 185 723 283 30 16 56 30 58 30 2
1 -7 -18 -20 -41z m-2485 -93 c5 -22 6 -58 4 -80 -5 -44 -106 -295 -119 -295
-5 0 -26 11 -47 25 l-38 26 69 176 c38 97 71 180 74 185 3 5 15 8 27 6 16 -2
23 -13 30 -43z m2641 -85 c46 -43 44 -70 -4 -70 -31 0 -38 -8 -20 -26 7 -7
-32 -16 -121 -28 -72 -9 -133 -15 -135 -13 -2 2 8 20 22 40 13 20 21 37 16 37
-5 0 -50 -23 -101 -52 -83 -46 -92 -53 -86 -75 9 -36 -20 -79 -80 -118 -31
-19 -59 -35 -64 -35 -5 0 -14 14 -21 30 -7 17 -15 30 -19 30 -3 0 -34 -30 -68
-67 l-63 -68 15 50 c20 67 61 124 117 160 32 21 47 37 47 53 1 12 -2 22 -5 22
-5 0 -262 -138 -273 -147 -3 -2 6 -11 18 -20 24 -16 23 -16 -31 -33 -127 -39
-179 -83 -287 -239 -55 -80 -63 -75 -35 20 21 73 60 131 142 212 60 60 70 66
82 53 23 -29 31 -16 8 15 -28 37 -23 41 77 65 38 9 114 32 167 50 65 23 116
34 153 34 49 0 73 9 215 80 88 44 160 85 160 90 0 6 6 10 13 10 6 0 28 14 47
30 l35 29 20 -41 c11 -23 38 -58 59 -78z m-3186 -41 c3 -73 1 -80 -62 -230
-111 -267 -114 -271 -134 -259 -47 27 -75 59 -68 77 4 10 53 125 109 256 96
224 103 237 127 235 24 -3 25 -6 28 -79z m3836 -34 l33 -80 44 -5 c39 -4 44
-8 47 -32 5 -38 -43 -173 -88 -249 -33 -56 -70 -102 -70 -87 0 3 16 83 35 178
19 95 35 176 35 179 -1 3 -9 -4 -20 -17 -25 -30 -48 -23 -91 25 -27 32 -31 42
-27 82 6 57 49 130 61 103 4 -9 22 -53 41 -97z m-4354 -61 c9 -27 8 -49 -9
-114 -12 -44 -21 -81 -21 -84 0 -2 -18 -6 -40 -8 -32 -3 -39 -1 -36 12 3 8 12
65 21 125 23 155 22 152 51 124 13 -12 28 -37 34 -55z m668 -32 c56 -55 78
-116 69 -192 -7 -56 -52 -160 -71 -160 -17 0 -121 109 -140 147 -20 40 -20 83
-1 129 17 42 75 124 87 124 5 0 30 -21 56 -48z m-548 -128 c11 -36 20 -88 20
-115 0 -40 -4 -51 -24 -64 -21 -14 -28 -14 -59 -2 -19 8 -37 19 -39 23 -5 8
26 183 36 211 3 7 14 13 25 13 16 0 24 -14 41 -66z m3466 16 c32 -16 91 -56
131 -88 40 -32 81 -65 93 -73 17 -11 21 -22 18 -50 l-3 -36 -167 131 c-92 72
-170 135 -174 139 -19 19 49 4 102 -23z m-2143 -229 c-10 -20 -34 -45 -53 -56
l-36 -20 9 -54 c5 -29 5 -56 0 -61 -4 -4 -39 -20 -76 -35 -69 -29 -86 -46
-213 -213 -9 -12 -28 7 -97 95 l-86 110 27 89 28 89 199 -4 200 -3 48 84 c28
51 48 99 48 119 1 19 5 4 10 -35 8 -58 6 -75 -8 -105z m1057 103 c21 -21 22
-27 10 -34 -8 -5 -31 -10 -51 -10 -107 0 -181 -53 -239 -170 -49 -101 -60
-113 -94 -100 -28 10 -28 10 -10 38 10 15 58 89 107 165 l89 137 82 0 c76 0
85 -2 106 -26z m-423 -78 c30 -17 49 -34 44 -39 -5 -5 -44 -13 -86 -18 -42 -4
-83 -13 -91 -20 -20 -17 -17 -54 8 -98 20 -34 20 -71 1 -71 -14 1 -74 87 -83
121 -14 48 4 92 53 133 49 41 74 40 154 -8z m2495 -78 c51 -68 101 -140 111
-162 10 -21 20 -36 23 -34 3 3 -1 17 -7 31 -10 22 -8 40 11 107 12 44 26 80
30 80 3 0 19 -13 34 -29 28 -29 28 -31 39 -220 8 -155 8 -196 -3 -219 -7 -15
-15 -33 -16 -41 -1 -8 -9 -18 -16 -22 -9 -6 -19 7 -34 49 -20 51 -26 58 -60
68 l-39 11 3 48 c6 75 -15 130 -73 194 -59 65 -88 114 -109 190 -15 52 -14 71
4 71 5 0 51 -55 102 -122z m-3971 -15 c147 -167 136 -146 104 -193 -15 -22
-31 -40 -36 -40 -15 0 -226 215 -233 238 -5 16 0 36 19 67 14 25 30 45 34 45
5 0 55 -53 112 -117z m2492 92 c42 -29 43 -32 21 -63 -23 -33 -70 -55 -93 -43
-28 16 -72 71 -65 83 6 9 81 47 94 48 3 0 22 -11 43 -25z m797 -96 l25 -21
-65 -60 c-36 -32 -76 -61 -90 -64 -14 -3 -36 -10 -50 -16 -14 -6 -69 -18 -122
-27 -109 -19 -108 -19 -108 49 0 43 -5 40 124 60 89 14 155 42 196 85 35 36
41 36 90 -6z m572 10 c11 -6 26 -26 34 -46 14 -32 13 -41 -7 -108 -12 -42 -32
-83 -45 -96 l-23 -21 -35 22 c-22 13 -38 32 -42 48 -3 15 -7 36 -9 46 -4 21
30 133 47 154 13 15 52 16 80 1z m-4606 -63 c20 -30 34 -61 31 -68 -8 -24 27
-69 106 -133 71 -59 80 -63 115 -58 81 13 137 59 232 190 25 34 48 61 51 60
12 -4 113 -123 140 -166 22 -34 29 -57 29 -94 0 -61 -44 -167 -69 -167 -10 0
-82 9 -161 20 -79 11 -152 20 -161 20 -10 0 -44 -37 -83 -90 -37 -49 -69 -90
-72 -90 -16 0 -44 24 -83 70 l-43 51 16 39 c22 55 11 92 -42 152 -40 43 -47
59 -53 107 -3 31 -3 63 2 71 4 8 3 23 -2 33 -9 16 -3 107 7 107 2 0 20 -24 40
-54z m2843 40 c53 -28 56 -40 21 -91 -27 -39 -36 -46 -56 -41 -41 11 -72 24
-79 36 -18 28 31 110 66 110 11 0 32 -6 48 -14z m-377 -149 c45 -110 6 -169
-79 -118 -38 24 -49 64 -32 120 12 39 14 41 53 41 39 0 42 -2 58 -43z m-850
-66 c27 -18 57 -48 73 -76 30 -51 68 -162 83 -243 8 -45 7 -52 -5 -48 -8 4
-25 9 -37 12 -14 3 -27 18 -34 37 -6 18 -38 67 -71 110 l-59 77 -62 -46 c-70
-53 -97 -91 -146 -207 -20 -45 -36 -82 -37 -84 -2 -2 -89 35 -94 40 -5 6 39
137 79 236 83 201 190 268 310 192z m994 -5 c11 -8 38 -18 60 -21 71 -13 75
-19 53 -65 -11 -22 -26 -40 -33 -40 -7 0 -27 -3 -44 -6 -25 -5 -31 -2 -37 15
-3 12 -10 19 -15 16 -5 -3 -46 -59 -91 -125 -73 -107 -83 -118 -100 -107 -10
6 -19 16 -19 21 0 12 118 277 136 304 17 26 59 29 90 8z m813 -2 c80 -8 79
-12 -17 -45 -126 -44 -208 -69 -229 -69 -12 0 -23 -3 -25 -8 -3 -7 -81 -38
-271 -107 l-99 -35 67 74 66 74 57 -1 c31 0 81 3 111 8 47 7 61 15 115 67 59
57 62 58 106 53 25 -2 78 -8 119 -11z m768 -46 c-3 -8 -6 -5 -6 6 -1 11 2 17
5 13 3 -3 4 -12 1 -19z m-3363 -67 c3 -5 11 -43 17 -86 10 -65 9 -88 -6 -157
-10 -45 -25 -104 -35 -132 l-17 -51 -54 -6 c-30 -3 -56 -4 -58 -3 -4 3 89 423
96 437 6 10 51 9 57 -2z m207 -206 c77 -62 99 -96 99 -152 0 -44 -53 -163 -73
-163 -21 0 -101 54 -125 84 -30 39 -45 92 -40 145 5 54 42 141 59 141 6 0 43
-25 80 -55z m1719 30 c-7 -8 -14 -15 -15 -15 -2 0 -5 7 -9 15 -4 10 1 15 16
15 17 0 18 -2 8 -15z m-146 -51 c-9 -35 -14 -39 -111 -80 -57 -23 -103 -41
-103 -40 0 2 46 43 101 90 109 93 131 99 113 30z m-2090 6 c86 -40 106 -73 79
-128 -11 -21 -24 -36 -33 -34 -7 2 -51 6 -97 9 -100 7 -119 -4 -128 -76 -10
-74 -9 -73 -65 -49 -57 24 -59 29 -35 140 29 139 70 183 162 174 29 -2 81 -19
117 -36z m2701 -21 c-92 -62 -115 -73 -115 -55 0 44 77 92 150 95 20 1 14 -7
-35 -40z m1443 -51 l96 -83 -34 -3 c-46 -5 -152 38 -222 91 l-57 42 52 17 c29
9 56 16 61 17 4 1 51 -36 104 -81z m-2844 -191 c-54 -59 -61 -82 -37 -115 16
-22 29 -28 67 -30 27 -2 54 2 62 9 12 10 19 8 35 -8 l21 -20 -74 4 c-67 4 -79
2 -148 -31 l-75 -35 -60 -105 c-33 -58 -62 -106 -65 -106 -3 0 -36 23 -73 51
-58 42 -73 60 -99 116 -31 65 -31 65 -19 147 7 45 16 88 20 95 6 9 31 6 109
-13 118 -31 122 -31 192 -10 60 18 159 103 161 138 1 13 4 7 9 -14 8 -31 5
-38 -26 -73z m-616 -277 c4 -10 -59 -99 -70 -100 -12 0 -257 190 -273 212 -19
29 -19 97 0 125 15 22 17 21 178 -103 89 -69 163 -130 165 -134z m-974 144 c3
-9 6 -34 6 -56 0 -36 9 -52 75 -133 41 -50 91 -104 112 -118 45 -31 105 -57
131 -57 10 0 79 58 153 129 l136 130 55 -37 c121 -81 138 -104 138 -182 0 -31
-7 -80 -15 -108 l-16 -52 -184 0 -183 0 -46 -84 c-25 -46 -46 -96 -46 -111 0
-15 12 -64 27 -109 24 -72 44 -103 176 -276 81 -107 153 -200 160 -207 7 -7
41 -40 77 -75 45 -44 75 -84 99 -133 49 -102 125 -208 213 -296 60 -59 106
-94 204 -150 70 -40 132 -72 139 -72 17 0 156 85 161 98 3 7 -4 44 -15 83 -16
59 -32 87 -97 169 -101 129 -183 213 -271 279 -121 91 -146 141 -141 282 l3
83 89 -45 c49 -25 102 -57 118 -73 33 -31 68 -93 68 -120 0 -34 66 -178 110
-243 46 -68 120 -147 182 -194 31 -23 57 -30 170 -47 73 -11 138 -17 145 -15
7 3 22 24 34 47 18 36 21 54 16 108 -9 111 -45 181 -156 300 -53 57 -144 162
-203 235 l-106 131 5 90 c4 65 10 93 21 103 9 6 19 12 22 12 4 0 59 -62 123
-139 118 -142 151 -199 257 -444 33 -76 34 -78 138 -150 99 -69 103 -72 78
-81 -14 -6 -26 -13 -26 -17 0 -4 13 -43 28 -87 l28 -79 -66 -44 c-36 -24 -163
-105 -283 -180 -211 -133 -220 -137 -307 -154 -50 -10 -109 -15 -132 -12 -96
13 -413 281 -606 512 -42 50 -171 234 -288 410 -116 176 -230 340 -253 365
-23 25 -50 63 -60 85 -15 35 -16 47 -5 98 11 53 10 63 -10 113 -13 34 -46 81
-89 129 -82 90 -119 165 -82 165 20 0 19 8 -9 57 -16 28 -21 44 -14 51 7 7 0
28 -21 65 -17 30 -31 57 -31 61 0 14 58 5 64 -10z m1728 -131 c21 -14 55 -49
77 -78 32 -43 47 -54 73 -57 27 -3 37 -12 64 -58 18 -30 29 -58 26 -62 -4 -3
-45 -9 -92 -13 l-85 -6 -70 70 c-38 39 -75 71 -81 71 -7 0 -37 -27 -67 -60
-44 -49 -58 -74 -76 -133 -11 -39 -21 -78 -21 -85 0 -13 -26 -25 -77 -35 -33
-6 -33 -6 -33 31 1 20 7 72 15 115 16 93 74 202 144 272 70 70 129 78 203 28z
m2155 -565 c-113 -222 -234 -455 -269 -519 -63 -112 -186 -385 -177 -393 2 -2
209 88 459 199 441 196 480 211 480 173 0 -27 -606 -888 -626 -888 -7 0 -16 5
-19 10 -4 6 41 124 98 263 104 251 122 297 114 297 -2 0 -214 -108 -470 -240
-396 -205 -470 -239 -487 -230 -11 6 -20 14 -20 19 0 21 314 679 335 701 14
15 30 51 39 91 9 41 62 163 139 321 120 246 126 256 158 263 19 4 55 28 86 58
62 59 102 66 152 29 l29 -21 89 138 c48 76 90 137 92 135 2 -1 -89 -184 -202
-406z m-2953 352 c56 -34 59 -48 47 -231 -6 -90 -11 -202 -12 -249 0 -47 -3
-101 -7 -121 l-7 -37 -53 22 -54 21 6 45 c3 25 8 140 11 255 7 247 13 315 27
315 6 0 25 -9 42 -20z m763 -22 c6 -13 26 -44 45 -69 35 -45 35 -47 25 -97 -6
-29 -14 -52 -18 -52 -9 0 -121 83 -136 101 -6 8 -15 27 -18 42 -6 23 -2 32 31
62 44 41 57 43 71 13z m272 -136 c1 -16 -3 -21 -11 -15 -7 4 -15 8 -18 8 -3 0
-14 7 -26 14 -21 14 -21 14 10 42 l31 28 6 -27 c4 -15 7 -37 8 -50z m-802 2
c47 -31 93 -71 104 -88 23 -38 25 -104 3 -175 -12 -42 -19 -51 -32 -46 -45 17
-140 77 -167 105 -25 27 -30 39 -30 83 0 52 23 177 33 177 3 0 43 -25 89 -56z
m468 -83 c22 -10 136 -80 254 -155 117 -75 215 -135 217 -134 2 2 -24 46 -57
98 -34 52 -54 88 -47 80 128 -136 288 -332 288 -352 0 -5 -16 -1 -37 7 -20 8
-37 14 -39 13 -1 -2 -15 -19 -31 -39 l-29 -37 -90 75 c-162 136 -248 200 -358
268 -92 58 -111 74 -126 109 -33 76 -34 86 -8 86 13 0 41 -9 63 -19z m-960 -7
c33 -8 64 -19 69 -24 4 -4 16 -37 26 -72 l17 -63 -44 4 c-25 2 -78 0 -119 -4
l-74 -7 0 -58 c0 -32 5 -71 11 -86 5 -16 76 -93 157 -173 97 -95 138 -142 122
-137 -14 4 -63 16 -109 28 -78 20 -89 26 -141 78 -93 93 -160 224 -176 344 -8
56 19 139 53 166 32 25 122 27 208 4z m4536 -174 c15 -19 29 -39 29 -43 0 -18
-93 -49 -132 -44 -57 8 -118 72 -118 124 0 18 6 18 96 8 92 -10 97 -11 125
-45z m224 50 c3 -5 18 -10 33 -10 40 -1 108 -35 127 -64 37 -56 -6 -164 -104
-265 -33 -34 -35 -40 -39 -116 l-3 -80 44 -60 c38 -53 45 -70 52 -130 12 -114
11 -113 90 -40 79 73 80 59 -10 131 l-38 31 35 21 c70 44 125 16 147 -75 20
-77 7 -116 -55 -172 -30 -26 -79 -60 -108 -75 -55 -28 -161 -50 -218 -44 -32
3 -30 5 55 52 48 28 87 55 87 60 0 6 -27 72 -59 146 -43 99 -62 157 -71 218
-7 45 -17 82 -22 82 -5 0 -34 -24 -65 -52 -68 -64 -144 -206 -118 -221 8 -4
15 -14 15 -22 0 -23 -22 -65 -35 -65 -6 0 -44 -52 -84 -115 -40 -63 -76 -117
-81 -120 -4 -2 -20 5 -35 17 -24 19 -26 25 -20 67 14 90 69 162 160 208 28 14
52 27 54 29 1 1 -4 31 -13 66 -24 96 -8 146 68 216 74 69 150 112 194 112 51
0 92 31 92 69 0 35 -9 44 -27 29 -12 -9 -20 -5 -41 23 -15 19 -43 52 -63 74
l-37 39 31 23 c35 24 53 28 62 13z m-3712 -530 c9 -14 31 -45 49 -68 32 -42
32 -44 14 -58 -11 -8 -22 -14 -26 -14 -3 0 -25 20 -50 45 -25 24 -48 44 -52
45 -9 0 -335 207 -458 290 -95 64 -116 86 -150 147 l-24 43 23 24 23 24 317
-226 c175 -125 325 -238 334 -252z m-965 392 c13 -17 15 -113 4 -175 l-7 -37
-83 106 c-46 58 -81 108 -78 111 11 11 81 21 116 17 19 -3 41 -13 48 -22z
m1607 -354 c6 -23 6 -23 -15 2 -44 51 -57 79 -52 112 5 31 5 30 33 -30 15 -34
30 -71 34 -84z m25 -135 c0 -3 -7 0 -15 7 -8 7 -15 24 -15 39 1 25 1 25 15 -8
8 -18 15 -36 15 -38z m2921 -100 c-23 -25 -44 -58 -48 -72 -3 -14 -12 -34 -18
-44 -12 -17 -14 -16 -28 12 -15 29 -14 31 11 50 26 18 26 18 4 25 -54 18 4 76
75 76 l45 0 -41 -47z m19 -324 l52 -127 49 -6 c27 -4 49 -9 49 -12 0 -4 -13
-23 -30 -44 -35 -44 -36 -49 -13 -88 15 -27 16 -37 5 -79 -16 -63 -59 -123
-104 -147 -32 -18 -40 -19 -79 -7 -48 14 -149 109 -149 139 0 10 13 32 29 51
l28 34 31 -22 c17 -12 46 -42 63 -66 34 -48 44 -50 52 -10 3 21 -2 31 -27 48
-25 17 -32 30 -34 63 -3 38 -1 42 57 88 34 26 61 50 61 54 -1 4 -20 21 -43 38
-25 19 -55 55 -74 91 l-32 59 26 37 c14 20 27 36 29 35 1 -2 25 -60 54 -129z
m547 -44 c34 -23 74 -88 80 -133 19 -145 -179 -182 -288 -53 -35 40 -59 97
-59 140 0 20 4 22 30 16 24 -5 38 0 74 28 43 33 48 34 93 26 25 -5 57 -16 70
-24z m-889 17 c22 -7 20 -11 -47 -119 l-69 -111 72 -7 c53 -6 78 -13 99 -31
l28 -23 -25 -16 c-20 -13 -29 -14 -46 -5 -20 10 -21 10 -11 -8 9 -18 5 -21
-49 -32 -33 -7 -60 -14 -60 -16 0 -2 9 -21 20 -41 26 -49 25 -88 -2 -143 -33
-63 -66 -83 -142 -88 l-64 -4 -51 47 c-28 26 -64 69 -82 96 -17 27 -35 49 -39
49 -4 0 -27 -9 -51 -19 -37 -16 -52 -18 -90 -10 -58 13 -106 53 -123 104 -13
36 -12 43 9 85 31 61 65 91 112 97 65 8 84 -6 138 -105 44 -79 53 -90 84 -98
28 -7 48 -25 95 -87 l59 -77 44 81 c25 45 43 82 41 84 -2 2 -33 -3 -71 -10
-63 -12 -68 -11 -77 6 -9 16 0 25 66 69 49 33 74 57 70 65 -14 38 -28 134 -23
156 9 37 49 92 77 106 27 13 70 15 108 5z m-4238 -270 c35 -22 46 -35 55 -62
12 -39 7 -87 -14 -135 -25 -57 -58 -78 -121 -76 -28 0 -50 -2 -50 -4 0 -8 40
-197 46 -217 5 -15 18 -18 95 -18 150 0 211 -39 226 -145 8 -59 26 -78 67 -71
17 2 70 8 117 11 75 6 91 5 126 -14 42 -21 83 -64 83 -87 0 -7 16 -28 36 -47
l37 -34 -37 -13 c-20 -6 -36 -14 -36 -18 0 -3 36 -60 79 -127 l79 -120 -3
-100 c-1 -55 -3 -112 -4 -127 -1 -35 -44 -85 -88 -103 -81 -34 -151 -11 -211
69 l-40 52 -95 19 -96 19 64 71 64 71 -40 77 -40 77 20 28 c34 48 42 52 84 35
31 -13 37 -19 31 -37 -8 -28 -8 -26 0 -69 5 -22 4 -56 -3 -83 -7 -26 -10 -48
-7 -51 4 -5 229 15 253 22 8 3 -10 50 -49 134 l-62 131 22 30 c12 16 22 33 22
37 0 4 -22 18 -48 30 -26 12 -59 32 -73 44 -40 32 -109 37 -155 10 -32 -19
-39 -20 -53 -8 -9 8 -35 24 -58 37 -41 22 -42 24 -23 37 26 18 25 25 -7 64
-34 40 -96 69 -148 69 -68 0 -73 -8 -51 -92 10 -40 36 -116 58 -168 24 -56 42
-117 45 -151 l6 -57 57 21 c57 21 59 21 96 4 l37 -18 -24 -25 c-13 -14 -46
-38 -74 -52 -43 -22 -66 -27 -159 -30 -133 -5 -172 5 -220 58 -49 55 -49 95 3
181 21 35 52 73 68 84 17 11 37 25 45 30 12 8 14 23 9 74 -9 81 -30 101 -105
101 -46 0 -58 5 -117 49 -92 69 -109 121 -61 181 16 19 21 21 40 11 l23 -12
-21 -26 c-30 -39 -26 -79 10 -102 28 -17 37 -17 91 -6 33 7 62 15 65 17 2 3
-17 49 -42 104 -39 82 -48 114 -56 189 -14 134 12 208 86 241 37 16 109 9 146
-14z m-230 -477 c0 -8 -4 -15 -9 -15 -5 0 -14 7 -21 15 -10 13 -9 15 9 15 12
0 21 -6 21 -15z m-64 -190 c93 -27 128 -52 140 -100 6 -22 -36 -92 -114 -193
l-19 -24 -56 164 c-32 89 -57 166 -57 171 0 11 10 9 106 -18z m1422 -369 l32
-44 -34 -6 c-18 -4 -41 -3 -51 0 -13 5 -16 4 -11 -4 4 -7 -1 -25 -10 -41 -15
-25 -26 -31 -68 -36 -28 -4 -82 -5 -119 -3 l-69 3 99 67 c82 55 169 104 194
107 3 1 20 -19 37 -43z m144 11 c34 -25 48 -65 48 -137 0 -43 -5 -63 -23 -88
-26 -34 -94 -92 -109 -92 -5 0 -49 23 -97 52 l-89 52 16 33 c9 18 20 33 25 33
5 0 44 -27 86 -61 l76 -61 6 28 c4 16 7 84 8 152 1 132 -1 128 53 89z m-1390
-162 c158 -55 184 -102 109 -199 -59 -76 -99 -112 -105 -95 -49 136 -114 329
-112 329 2 0 51 -16 108 -35z m379 -242 l30 -43 -20 -46 c-30 -66 -114 -160
-158 -175 -46 -15 -104 1 -132 38 -31 38 -26 87 18 172 l38 74 79 32 79 32 18
-21 c10 -11 31 -40 48 -63z m207 -47 c37 -19 98 -54 135 -78 l68 -44 -203 -64
c-112 -34 -223 -69 -248 -77 l-45 -13 47 47 c62 65 78 100 78 172 l0 60 48 15
c26 8 48 15 50 15 1 1 33 -14 70 -33z m-387 -261 l72 -22 -69 -37 c-37 -20
-72 -32 -76 -28 -4 4 -16 33 -27 65 l-20 57 25 -6 c13 -3 56 -16 95 -29z"/>
<path d="M23999 17867 c-21 -16 -79 -110 -79 -128 0 -13 38 -45 44 -37 2 2 19
28 40 58 51 78 48 148 -5 107z"/>
<path d="M18996 17065 c-73 -51 -72 -49 -36 -95 32 -41 82 -74 94 -63 9 9 8
193 -1 192 -5 0 -30 -15 -57 -34z"/>
<path d="M21390 16893 c-51 -9 -252 -61 -258 -67 -3 -4 20 -33 52 -65 33 -34
57 -65 54 -73 -3 -7 -38 -64 -77 -127 -40 -62 -70 -118 -68 -124 2 -7 37 23
78 66 43 45 83 77 94 77 24 0 74 -30 132 -78 37 -29 43 -40 43 -72 0 -21 7
-53 15 -71 l14 -34 1 52 c0 28 -4 55 -10 58 -5 3 -10 18 -10 33 0 26 1 26 44
-17 24 -24 46 -39 49 -34 13 23 17 76 7 110 -5 21 -19 97 -30 169 -10 73 -26
148 -34 168 -16 37 -27 41 -96 29z"/>
<path d="M21097 16824 c-12 -12 -210 -35 -392 -44 -104 -5 -226 -16 -269 -24
-70 -12 -83 -12 -115 2 -34 14 -193 23 -205 11 -3 -3 7 -42 21 -87 19 -57 31
-81 40 -77 8 2 49 32 93 66 79 61 81 62 117 51 21 -6 41 -8 47 -3 6 5 46 12
88 16 59 6 94 3 148 -10 l71 -18 33 32 c30 29 39 32 179 49 82 11 153 24 160
31 7 7 7 11 1 11 -6 0 -13 -3 -17 -6z"/>
<path d="M20112 16478 c-24 -62 -51 -159 -67 -243 -18 -89 -36 -153 -50 -175
-17 -28 -20 -41 -13 -65 11 -39 3 -186 -17 -317 -4 -23 -1 -28 16 -28 18 0 19
2 9 15 -9 11 -11 33 -5 83 4 37 9 87 11 112 1 25 12 80 24 123 12 45 19 89 15
105 -9 42 48 295 89 396 20 49 34 91 32 93 -2 3 -22 -42 -44 -99z"/>
<path d="M22406 15294 c-25 -14 -37 -14 -86 -4 -73 16 -97 8 -46 -14 43 -18
90 -14 140 11 18 9 42 13 65 9 26 -4 30 -3 16 4 -30 13 -56 11 -89 -6z"/>
<path d="M21005 11128 c4 -11 -8 -42 -34 -85 -22 -37 -37 -71 -33 -75 10 -10
171 -66 176 -61 8 8 -75 198 -95 218 -16 16 -19 17 -14 3z"/>
<path d="M18320 17745 c-7 -9 -8 -15 -2 -15 5 0 12 7 16 15 3 8 4 15 2 15 -2
0 -9 -7 -16 -15z"/>
<path d="M26022 14625 c0 -16 2 -22 5 -12 2 9 2 23 0 30 -3 6 -5 -1 -5 -18z"/>
<path d="M26400 12765 c-8 -10 -10 -27 -4 -52 l7 -38 7 40 c3 22 9 46 13 53
11 17 -8 15 -23 -3z"/>
<path d="M24639 9627 c-45 -78 -90 -156 -101 -174 -24 -40 -5 -58 24 -22 72
89 116 155 153 230 41 81 42 86 25 97 -17 10 -27 -2 -101 -131z"/>
<path d="M4860 8801 c0 -5 7 -12 16 -15 24 -9 28 -7 14 9 -14 17 -30 20 -30 6z"/>
</g>
</svg>
